<?xml version="1.0" standalone="no"?>
<!DOCTYPE svg PUBLIC "-//W3C//DTD SVG 20010904//EN"
 "http://www.w3.org/TR/2001/REC-SVG-20010904/DTD/svg10.dtd">
<svg version="1.0" xmlns="http://www.w3.org/2000/svg"
 width="928.000000pt" height="928.000000pt" viewBox="0 0 928.000000 928.000000"
 preserveAspectRatio="xMidYMid meet">
<metadata>
Created by potrace 1.14, written by Peter Selinger 2001-2017
</metadata>
<g transform="translate(0.000000,928.000000) scale(0.100000,-0.100000)"
fill="#000000" stroke="none">
<path d="M4366 9264 c-53 -13 -174 -60 -186 -74 -13 -14 -70 -50 -80 -50 -5 0
-10 -4 -10 -8 0 -5 -18 -18 -40 -31 -22 -12 -45 -27 -52 -34 -7 -7 -74 -52
-148 -102 -74 -49 -137 -92 -140 -95 -6 -6 -139 -98 -174 -120 -46 -29 -141
-94 -146 -100 -3 -3 -23 -17 -45 -30 -22 -13 -42 -26 -45 -30 -4 -5 -57 -41
-190 -130 -25 -16 -50 -34 -56 -38 -6 -5 -37 -27 -70 -48 -32 -21 -61 -41 -64
-44 -3 -3 -32 -23 -65 -45 -33 -22 -61 -43 -63 -47 -2 -5 -10 -8 -18 -8 -8 0
-14 -4 -14 -10 0 -5 -4 -10 -10 -10 -8 0 -136 -85 -175 -117 -6 -4 -57 -39
-115 -78 -58 -38 -107 -72 -110 -75 -3 -3 -45 -32 -95 -65 -49 -33 -91 -63
-93 -67 -2 -5 -10 -8 -18 -8 -8 0 -14 -3 -14 -8 0 -4 -9 -12 -19 -17 -36 -18
-236 -157 -239 -166 -2 -5 -8 -9 -13 -9 -9 0 -184 -115 -199 -130 -3 -3 -33
-24 -68 -48 -35 -23 -111 -75 -168 -115 -58 -40 -113 -76 -122 -82 -9 -5 -46
-31 -84 -57 -37 -27 -72 -48 -76 -48 -4 0 -14 -9 -22 -20 -8 -11 -20 -20 -26
-20 -7 0 -19 -6 -26 -12 -13 -13 -120 -86 -318 -219 -52 -35 -99 -70 -103 -76
-4 -7 -12 -13 -17 -13 -5 0 -63 -37 -129 -81 -101 -68 -174 -134 -237 -211
-17 -22 -74 -144 -74 -160 0 -8 -3 -18 -7 -21 -3 -4 -9 -22 -12 -39 -9 -48 -7
-4683 1 -4748 4 -30 10 -68 14 -85 3 -16 7 -39 9 -50 9 -49 37 -154 54 -200
11 -27 23 -59 27 -70 4 -11 8 -22 9 -25 0 -3 11 -27 23 -54 12 -27 22 -52 22
-57 0 -5 5 -9 11 -9 5 0 8 -4 5 -9 -4 -5 -3 -11 1 -13 5 -1 17 -21 28 -43 49
-99 165 -253 275 -365 66 -68 232 -210 244 -210 3 0 31 -18 64 -39 63 -42 251
-140 280 -146 9 -2 31 -9 47 -16 17 -7 32 -13 35 -14 86 -27 128 -39 140 -40
8 -1 34 -7 56 -13 45 -13 75 -18 174 -30 83 -9 3486 -9 3560 0 30 4 72 9 93
12 21 3 46 7 55 10 9 3 32 8 50 11 47 8 225 65 237 76 5 5 15 9 23 9 21 0 222
101 222 112 0 5 4 7 9 4 4 -3 19 3 31 14 13 11 29 20 37 20 7 0 13 4 13 9 0 5
17 20 39 32 58 36 126 94 223 192 86 87 228 265 228 286 0 6 4 11 9 11 8 0
110 200 146 285 61 145 108 376 109 537 1 38 5 68 9 68 5 0 5 5 1 11 -3 6 -8
45 -10 87 -5 129 -17 208 -51 337 -33 124 -93 273 -158 389 -28 48 -56 99 -63
112 -7 13 -17 24 -23 24 -5 0 -9 7 -9 15 0 8 -4 15 -10 15 -5 0 -10 5 -10 11
0 6 -6 16 -12 23 -7 7 -24 28 -38 47 -26 35 -185 197 -235 238 -58 48 -192
140 -250 171 -33 18 -64 35 -70 40 -14 10 -206 91 -226 95 -9 2 -37 10 -62 19
-25 8 -56 18 -69 21 -77 17 -127 27 -158 31 -19 3 -51 8 -70 11 -19 3 -335 7
-702 9 -408 2 -682 7 -705 13 -21 6 -41 10 -46 10 -24 0 -139 73 -182 117 -63
64 -70 73 -94 126 -34 77 -44 120 -43 203 0 99 13 153 57 230 59 106 140 172
262 217 58 22 59 22 1238 24 1009 2 1240 5 1240 14 0 1 10 3 22 6 77 14 210
86 278 150 69 65 147 192 171 279 25 92 26 258 0 337 -31 98 -95 206 -155 261
-17 16 -31 32 -31 37 0 4 -13 13 -30 20 -16 7 -30 16 -30 20 0 12 -128 71
-200 91 -62 18 -118 19 -1310 16 -685 -2 -1258 -6 -1275 -9 -86 -17 -142 -29
-161 -32 -33 -7 -107 -27 -129 -36 -11 -5 -38 -14 -60 -21 -22 -6 -65 -23 -95
-37 -30 -14 -57 -26 -60 -27 -8 -2 -81 -39 -110 -55 -83 -48 -216 -139 -270
-187 -55 -48 -192 -185 -220 -222 -19 -24 -40 -48 -45 -55 -20 -21 -125 -185
-125 -194 0 -5 -8 -20 -18 -33 -10 -13 -35 -64 -56 -114 -21 -49 -41 -99 -46
-110 -5 -11 -14 -38 -20 -60 -6 -22 -14 -47 -17 -55 -3 -8 -7 -24 -8 -36 -2
-11 -8 -38 -13 -60 -13 -47 -22 -102 -29 -169 -7 -70 -7 -321 0 -375 3 -25 9
-63 11 -85 3 -22 14 -72 25 -112 10 -40 16 -75 13 -78 -3 -3 0 -5 5 -5 6 0 10
-8 9 -17 -2 -10 5 -36 14 -58 19 -44 31 -77 31 -85 1 -3 4 -9 9 -15 4 -5 13
-27 19 -47 7 -21 17 -38 22 -38 5 0 8 -3 7 -7 -3 -10 50 -114 68 -134 8 -8 14
-19 14 -23 0 -7 80 -121 114 -164 47 -57 203 -213 256 -255 36 -29 70 -56 77
-62 7 -5 19 -16 27 -23 8 -6 18 -12 22 -12 3 0 27 -14 53 -31 60 -41 222 -122
297 -149 32 -12 66 -24 74 -27 8 -3 20 -7 25 -9 6 -1 44 -11 85 -22 41 -12 89
-23 105 -26 17 -3 41 -7 55 -10 87 -16 190 -19 770 -21 594 -2 706 -5 731 -21
5 -3 21 -8 36 -10 14 -3 38 -14 53 -24 15 -11 29 -17 32 -15 3 3 34 -23 71
-57 68 -65 129 -163 142 -229 13 -66 14 -178 1 -227 -28 -102 -130 -249 -187
-267 -11 -4 -19 -10 -19 -15 0 -9 -108 -54 -160 -66 -19 -4 -773 -8 -1675 -9
-1519 -1 -1645 1 -1705 16 -72 20 -160 58 -160 71 0 4 -5 8 -11 8 -32 0 -138
147 -166 231 -17 52 -18 148 -18 2149 l0 2094 40 28 c102 71 126 88 131 88 3
0 10 5 17 11 9 8 160 113 257 179 8 6 48 33 88 60 40 28 76 50 81 50 5 0 11 4
13 8 3 8 87 66 353 246 33 22 62 44 63 48 2 5 8 8 14 8 6 0 24 11 42 25 44 36
48 38 78 54 15 8 37 22 47 33 11 10 22 18 25 18 7 0 96 61 114 78 8 7 28 20
45 29 17 8 37 21 44 27 7 6 18 16 25 21 16 12 210 144 246 167 15 9 32 20 37
25 6 4 30 22 55 38 25 17 47 33 48 38 2 4 8 7 12 7 10 0 82 47 90 59 3 5 16
14 30 22 15 8 81 52 149 99 68 47 133 92 146 100 89 59 467 316 480 327 6 5
37 26 70 48 33 22 62 42 65 45 23 25 184 121 195 116 8 -3 65 -40 127 -82 165
-113 173 -118 178 -125 3 -3 10 -8 15 -10 10 -4 331 -221 486 -329 43 -30 135
-93 204 -140 121 -82 210 -143 461 -315 64 -44 125 -84 135 -90 11 -5 19 -13
19 -17 0 -5 6 -8 13 -8 7 0 24 -11 39 -25 15 -14 30 -25 33 -25 4 0 21 -11 39
-25 18 -14 38 -25 44 -25 6 0 12 -4 14 -8 2 -4 39 -32 83 -62 44 -30 82 -58
83 -62 2 -5 8 -8 13 -8 5 0 40 -22 78 -50 38 -27 73 -50 79 -50 6 0 12 -4 14
-8 2 -7 273 -195 325 -227 9 -5 26 -18 37 -27 11 -10 25 -18 32 -18 7 0 14 -4
16 -8 2 -4 68 -52 148 -107 406 -275 384 -259 370 -284 -4 -8 -4 -25 0 -36 5
-12 4 -28 0 -35 -5 -8 -4 -22 1 -31 6 -11 5 -20 -1 -24 -6 -3 -7 -14 -2 -23 6
-15 7 -40 2 -67 -1 -5 -1 -28 -1 -50 1 -22 1 -46 1 -52 0 -26 0 -50 1 -106 1
-31 -1 -60 -4 -63 -3 -3 -2 -16 3 -28 4 -13 4 -29 0 -36 -5 -8 -4 -22 1 -31 6
-11 5 -20 -1 -24 -6 -3 -7 -14 -2 -23 6 -15 7 -40 2 -67 -1 -5 -1 -28 -1 -50
1 -22 1 -46 1 -52 0 -26 0 -50 1 -106 1 -31 -1 -60 -4 -63 -3 -3 -2 -16 3 -28
4 -13 4 -29 0 -36 -5 -8 -4 -22 1 -31 6 -11 5 -20 -1 -24 -6 -3 -7 -14 -2 -23
6 -15 7 -40 2 -67 -3 -16 -1 -77 3 -107 2 -16 0 -28 -4 -28 -5 0 -4 -11 1 -24
5 -13 6 -26 4 -29 -8 -7 -8 -126 -1 -133 3 -4 3 -14 -2 -23 -5 -9 -5 -25 -1
-35 3 -11 4 -37 0 -57 -4 -21 -4 -43 1 -50 4 -7 3 -21 -2 -30 -5 -10 -5 -20
-1 -23 5 -3 6 -26 2 -50 -4 -25 -3 -51 1 -58 4 -6 3 -20 -2 -29 -5 -10 -5 -20
-1 -23 5 -3 6 -26 2 -50 -4 -25 -3 -51 1 -58 4 -6 3 -20 -2 -29 -5 -10 -5 -20
-1 -23 5 -3 6 -26 2 -50 -4 -25 -3 -51 1 -58 4 -6 3 -20 -2 -29 -5 -10 -5 -20
-1 -23 5 -3 6 -26 2 -50 -4 -25 -3 -51 1 -58 4 -6 3 -20 -2 -29 -5 -10 -5 -20
-1 -23 5 -3 6 -26 2 -50 -4 -25 -3 -51 1 -58 4 -6 3 -20 -2 -29 -5 -10 -5 -20
-1 -23 5 -3 6 -26 2 -50 -4 -25 -3 -51 1 -58 4 -6 3 -20 -2 -29 -5 -10 -5 -20
-1 -23 5 -3 6 -26 2 -50 -4 -25 -3 -51 1 -58 4 -6 3 -20 -2 -29 -5 -10 -5 -20
-1 -23 5 -3 6 -26 2 -50 -4 -25 -3 -51 1 -58 4 -6 3 -20 -2 -29 -5 -10 -5 -20
-1 -23 5 -3 6 -26 2 -50 -4 -25 -3 -51 1 -58 4 -6 3 -20 -2 -29 -5 -10 -5 -20
-1 -23 5 -3 6 -26 2 -50 -4 -25 -3 -51 1 -58 4 -6 3 -20 -2 -29 -5 -10 -5 -20
-1 -23 5 -3 6 -26 2 -50 -4 -25 -3 -51 1 -58 4 -6 3 -20 -2 -29 -5 -10 -5 -20
-1 -23 5 -3 6 -26 2 -50 -4 -25 -3 -51 1 -58 4 -6 3 -20 -2 -29 -5 -10 -5 -20
-1 -23 5 -3 6 -26 2 -50 -4 -25 -3 -51 1 -58 4 -6 3 -20 -2 -29 -5 -10 -5 -20
-1 -23 5 -3 6 -26 2 -50 -4 -25 -3 -51 1 -58 4 -6 3 -20 -2 -29 -5 -10 -5 -20
-1 -23 5 -3 6 -26 2 -50 -4 -25 -3 -51 1 -58 4 -6 4 -19 -1 -29 -5 -9 -7 -19
-3 -22 5 -6 7 -83 3 -104 -1 -5 -1 -26 -1 -48 1 -22 1 -46 1 -52 0 -26 0 -50
1 -106 1 -31 -1 -60 -4 -63 -3 -3 -2 -16 3 -28 4 -13 4 -29 0 -36 -5 -8 -4
-22 1 -31 6 -11 5 -20 -1 -24 -6 -3 -7 -14 -2 -23 6 -15 7 -40 2 -67 -3 -16
-1 -77 3 -107 2 -16 0 -28 -4 -28 -5 0 -4 -11 1 -24 5 -13 6 -26 4 -29 -3 -3
-5 -31 -5 -64 1 -32 1 -66 1 -75 0 -10 0 -26 0 -35 0 -51 -1 -119 -1 -128 -1
-20 11 -83 20 -108 5 -14 7 -27 5 -30 -3 -3 14 -44 37 -91 76 -156 237 -294
384 -331 17 -4 39 -9 50 -12 49 -13 223 -12 268 2 26 8 47 11 47 8 0 -3 6 0
13 6 8 6 17 8 20 4 4 -3 7 -1 7 5 0 7 3 11 8 10 10 -3 80 31 116 56 69 48 101
78 146 136 19 25 38 48 43 51 5 3 8 8 8 10 -2 13 13 49 20 49 5 0 8 3 7 8 -1
4 4 19 10 35 44 106 43 -10 42 2946 0 1532 -2 2806 -4 2831 -8 99 -46 220 -82
261 -8 8 -14 20 -14 26 0 26 -146 158 -268 242 -73 50 -135 91 -138 91 -3 0
-14 8 -25 18 -10 11 -32 25 -47 33 -15 8 -33 19 -40 26 -7 7 -26 20 -42 30
-17 9 -30 21 -30 25 0 4 -5 8 -11 8 -6 0 -31 15 -56 33 -25 17 -56 39 -69 47
-60 39 -348 236 -359 248 -8 6 -16 12 -19 12 -3 0 -37 22 -76 50 -39 27 -75
50 -80 50 -6 0 -10 4 -10 8 0 5 -12 15 -27 23 -16 8 -30 17 -33 20 -3 3 -61
43 -130 90 -69 46 -127 86 -130 89 -3 3 -68 48 -145 100 -77 51 -163 111 -192
132 -29 21 -55 38 -58 38 -3 0 -33 20 -67 45 -86 61 -82 59 -101 70 -49 30
-162 110 -165 117 -2 4 -9 8 -15 8 -7 0 -25 12 -42 26 -16 14 -43 33 -60 41
-16 9 -32 19 -35 23 -3 3 -81 58 -175 121 -93 63 -172 116 -175 119 -5 5 -42
30 -81 55 -61 38 -135 92 -142 102 -4 7 -12 13 -18 13 -8 0 -124 75 -139 90
-4 4 -83 58 -370 252 -36 23 -70 48 -77 55 -7 6 -22 15 -33 18 -11 3 -20 11
-20 16 0 5 -6 9 -14 9 -8 0 -16 4 -18 8 -6 16 -186 132 -254 164 -116 54 -274
71 -398 42z"/>
</g>
</svg>
