<svg xmlns="http://www.w3.org/2000/svg" width="22" height="22" fill="none"><g clip-path="url(#clip0_95_2182)"><path d="M11 .916H2.75A2.753 2.753 0 000 3.666v12.833h13.75V3.666A2.753 2.753 0 0011 .916zM7.472 11.379a1.827 1.827 0 01-1.296.536c-.47 0-.94-.179-1.297-.536l-2.45-2.45 1.296-1.297 2.45 2.45 3.849-3.848L11.32 7.53l-3.848 3.849zm12.641 6.954c.032.148.054.3.054.458a2.291 2.291 0 11-4.584 0c0-.158.022-.31.053-.458h4.478zm-12.833 0c.031.148.053.3.053.458a2.291 2.291 0 11-4.583 0c0-.158.022-.31.053-.458H7.28zM22 9.166v.917h-6.417v-5.5h1.834A4.589 4.589 0 0122 9.166zm-6.417 2.75H22v4.583h-6.417v-4.583z" fill="#3877F2"/></g><defs><clipPath id="clip0_95_2182"><path fill="#fff" d="M0 0h22v22H0z"/></clipPath></defs></svg>