<svg width="24" height="24" fill="none" xmlns="http://www.w3.org/2000/svg"><g clip-path="url(#clip0_545_3697)"><path d="M15.5 0a1.5 1.5 0 10.001 3.001A1.5 1.5 0 0015.5 0zm7 5a1.5 1.5 0 10.001 3.001A1.5 1.5 0 0022.5 5zm-7 3h2.333L22.5 0h-2.333L15.5 8zm-4-3c0 1.657-2.574 3-5.75 3S0 6.657 0 5s2.574-3 5.75-3 5.75 1.343 5.75 3zm0 13.5v2c0 1.995-2.472 3.5-5.75 3.5S0 22.495 0 20.5v-2C0 20.471 2.396 22 5.75 22s5.75-1.529 5.75-3.5zm0-4v2c0 1.995-2.472 3.5-5.75 3.5S0 18.495 0 16.5v-2C0 16.471 2.396 18 5.75 18s5.75-1.529 5.75-3.5zm0-4v2c0 1.995-2.472 3.5-5.75 3.5S0 14.495 0 12.5v-2C0 12.471 2.396 14 5.75 14s5.75-1.529 5.75-3.5zm0-4v2c0 1.995-2.472 3.5-5.75 3.5S0 10.495 0 8.5v-2C0 8.471 2.396 10 5.75 10s5.75-1.529 5.75-3.5zM23 13c0 1.657-2.574 3-5.75 3s-5.75-1.343-5.75-3 2.574-3 5.75-3S23 11.343 23 13zm0 5.5v2c0 1.995-2.472 3.5-5.75 3.5s-5.75-1.505-5.75-3.5v-2c0 1.971 2.396 3.5 5.75 3.5S23 20.471 23 18.5zm0-4v2c0 1.995-2.472 3.5-5.75 3.5s-5.75-1.505-5.75-3.5v-2c0 1.971 2.396 3.5 5.75 3.5S23 16.471 23 14.5z" fill="#fff"/></g><defs><clipPath id="clip0_545_3697"><path fill="#fff" d="M0 0h24v24H0z"/></clipPath></defs></svg>