<svg width="24" height="24" fill="none" xmlns="http://www.w3.org/2000/svg"><path d="M10.9 10.5c0 .496-.404.9-.9.9h-.4V9.6h.4c.496 0 .9.404.9.9zM24 8v8c0 2.757-2.243 5-5 5H5c-2.757 0-5-2.243-5-5V8c0-2.757 2.243-5 5-5h14c2.757 0 5 2.243 5 5zM5.6 11.4V9.599h.601a.8.8 0 100-1.6h-1.4a.8.8 0 00-.8.8v6.4a.8.8 0 101.6 0v-2.2h.601a.8.8 0 100-1.6h-.601L5.6 11.4zm5.833 1.144a2.494 2.494 0 001.066-2.097C12.471 9.077 11.312 8 9.943 8H8.8a.8.8 0 00-.8.8v6.4a.8.8 0 101.6 0V13h.284l.705 2.423a.8.8 0 00.768.577h.063a.8.8 0 00.765-1.033l-.739-2.43.042-.029c-.019.012-.031.022-.055.036zM14.6 11.2V9.599h.601a.8.8 0 100-1.6h-1.4a.8.8 0 00-.8.8v6.4a.8.8 0 00.8.8h1.4a.8.8 0 100-1.6H14.6v-1.601h.601a.8.8 0 100-1.6H14.6v.002zm4 0V9.599h.601a.8.8 0 100-1.6h-1.4a.8.8 0 00-.8.8v6.4a.8.8 0 00.8.8h1.4a.8.8 0 100-1.6H18.6v-1.601h.601a.8.8 0 100-1.6H18.6v.002z" fill="#fff"/></svg>