<svg width="24" height="24" fill="none" xmlns="http://www.w3.org/2000/svg"><g clip-path="url(#clip0_545_3702)"><path d="M18.581 2.14L12.316.051a1 1 0 00-.632 0L5.419 2.14A4.993 4.993 0 002 6.883V12c0 7.563 9.2 11.74 9.594 11.914a1 1 0 00.812 0C12.8 23.74 22 19.563 22 12V6.883a4.993 4.993 0 00-3.419-4.743zm-1.863 7.577l-4.272 4.272a1.872 1.872 0 01-1.335.553h-.033a1.871 1.871 0 01-1.345-.6l-2.306-2.4a1 1 0 111.441-1.382l2.244 2.34L15.3 8.3a1 1 0 011.414 1.414l.004.003z" fill="#fff"/></g><defs><clipPath id="clip0_545_3702"><path fill="#fff" d="M0 0h24v24H0z"/></clipPath></defs></svg>