<svg xmlns="http://www.w3.org/2000/svg" width="24" height="24" fill="none"><g clip-path="url(#clip0_95_2180)"><path d="M23.687 22.739a1 1 0 01-1.414-.064A8.666 8.666 0 0120 16.818V16h-2a2 2 0 01-2 2H2a2 2 0 01-2-2v-1a3.855 3.855 0 014-4h10a4.006 4.006 0 013.873 3H20v-.818a8.663 8.663 0 012.272-5.856 1 1 0 111.477 1.348 6.67 6.67 0 00-1.75 4.508v3.636a6.666 6.666 0 001.75 4.508.999.999 0 01-.062 1.413zM14.869 9.063l-3.432-4.922A5 5 0 007.336 2H6.5A2.5 2.5 0 004 4.5V9h10c.29 0 .581.021.869.063zM2.058 20c-.587 3.954 5.472 3.952 4.884 0H2.058zm9 0c-.587 3.954 5.472 3.952 4.884 0h-4.884z" fill="gray"/></g><defs><clipPath id="clip0_95_2180"><path fill="#fff" d="M0 0h24v24H0z"/></clipPath></defs></svg>