<svg xmlns="http://www.w3.org/2000/svg" width="32" height="32" fill="none"><path d="M16 29a2.667 2.667 0 001.866-.786l5.734-5.72a1.334 1.334 0 10-1.894-1.88l-4.373 4.387V11.667a1.334 1.334 0 00-2.667 0v13.334l-4.386-4.387a1.334 1.334 0 00-1.894 1.88l5.734 5.72a2.67 2.67 0 001.88.787z" fill="gray"/><path d="M15.987 3a2.667 2.667 0 00-1.867.786l-5.733 5.72a1.333 1.333 0 101.893 1.88l4.373-4.387v13.334a1.334 1.334 0 002.667 0V6.999l4.387 4.387a1.335 1.335 0 001.893-1.88l-5.733-5.72a2.667 2.667 0 00-1.88-.787z" fill="gray"/></svg>