<svg width="24" height="24" fill="none" xmlns="http://www.w3.org/2000/svg"><g clip-path="url(#clip0_270_5574)" fill="#fff"><path d="M23.15 8.681a2.592 2.592 0 00-1.877-.678 2.574 2.574 0 00-1.794.835l-3.541 3.737c.032.21.065.42.065.638a4.233 4.233 0 01-3.617 4.17l-4.252.596A1 1 0 017.85 16l4.162-.583c.936-.134 1.748-.806 1.94-1.732A2.218 2.218 0 0011.789 11H4.002a4 4 0 00-4 4v5a4 4 0 004 4h4.263a9.999 9.999 0 007.374-3.246l7.702-8.409a2.618 2.618 0 00-.19-3.665v.001z"/><ellipse cx="11.159" cy="4.803" rx="2.786" ry="5.5" transform="rotate(-114.306 11.16 4.803)"/></g><defs><clipPath id="clip0_270_5574"><path fill="#fff" d="M0 0h24v24H0z"/></clipPath></defs></svg>