<svg width="22" height="22" fill="none" xmlns="http://www.w3.org/2000/svg"><g clip-path="url(#clip0_268_5566)"><path d="M6.875 11.917a4.126 4.126 0 110-8.251 4.126 4.126 0 010 8.25zM12.833 22H.917A.917.917 0 010 21.083v-.458a6.875 6.875 0 0113.75 0v.458a.917.917 0 01-.917.917zm3.209-13.75a4.125 4.125 0 110-8.25 4.125 4.125 0 010 8.25zm-1.303 1.853a6.254 6.254 0 00-4.28 2.595 8.742 8.742 0 014.504 4.719h6.12A.917.917 0 0022 16.5v-.035a6.423 6.423 0 00-7.26-6.362z" fill="#fff"/></g><defs><clipPath id="clip0_268_5566"><path fill="#fff" d="M0 0h22v22H0z"/></clipPath></defs></svg>