<svg width="19" height="19" fill="none" xmlns="http://www.w3.org/2000/svg"><g clip-path="url(#clip0_188_441)"><path d="M18.406.476A1.803 1.803 0 0016.98.012c-4.478.517-6.536 3.51-7.48 5.993C8.556 3.523 6.498.529 2.02.012A1.811 1.811 0 00.594.476 1.79 1.79 0 00.01 1.839C.08 4.428.926 6.484 2.527 7.95c2.064 1.89 4.815 2.266 6.182 2.33v7.927a.791.791 0 101.584 0V10.28c1.367-.063 4.118-.439 6.182-2.33 1.6-1.466 2.447-3.522 2.516-6.111a1.79 1.79 0 00-.583-1.363h-.002zm-14.818 6.3C2.32 5.61 1.65 3.936 1.593 1.796a.202.202 0 01.07-.153.225.225 0 01.15-.06c5.196.601 6.494 5.177 6.8 7.104-1.194-.079-3.416-.432-5.025-1.911zm13.819-4.978c-.057 2.138-.728 3.813-1.996 4.978-1.609 1.48-3.835 1.833-5.029 1.912.3-1.926 1.586-6.5 6.804-7.104.072 0 .124.036.15.06a.202.202 0 01.07.153z" fill="#fff"/></g><defs><clipPath id="clip0_188_441"><path fill="#fff" d="M0 0h19v19H0z"/></clipPath></defs></svg>