<svg width="17" height="17" fill="none" xmlns="http://www.w3.org/2000/svg"><g clip-path="url(#clip0_211_4780)" fill="#fff"><path d="M3.896 12.042a1.063 1.063 0 100-2.125 1.063 1.063 0 000 2.125z"/><path d="M13.458 2.125H3.542A3.546 3.546 0 000 5.667v5.666a3.546 3.546 0 003.542 3.542h9.916A3.545 3.545 0 0017 11.333V5.667a3.546 3.546 0 00-3.542-3.542zM3.542 3.542h9.916a2.125 2.125 0 012.125 2.125H1.417a2.125 2.125 0 012.125-2.125zm9.916 9.916H3.542a2.125 2.125 0 01-2.125-2.125v-4.25h14.166v4.25a2.125 2.125 0 01-2.125 2.125z"/></g><defs><clipPath id="clip0_211_4780"><path fill="#fff" d="M0 0h17v17H0z"/></clipPath></defs></svg>