<svg width="19" height="19" fill="none" xmlns="http://www.w3.org/2000/svg"><g clip-path="url(#clip0_188_431)"><path d="M6.333 9.5c2.62 0 4.75-2.13 4.75-4.75S8.953 0 6.333 0s-4.75 2.13-4.75 4.75 2.13 4.75 4.75 4.75zm0-7.917A3.17 3.17 0 019.5 4.75a3.17 3.17 0 01-3.167 3.167A3.17 3.17 0 013.167 4.75a3.17 3.17 0 013.166-3.167zm6.334 13.459V19h-1.584v-3.958a2.378 2.378 0 00-2.375-2.375h-4.75a2.378 2.378 0 00-2.375 2.375V19H0v-3.958a3.963 3.963 0 013.958-3.959h4.75a3.963 3.963 0 013.959 3.959zm6.299-7.537l-3.9 3.9a1.6 1.6 0 01-2.269 0l-2.273-2.272 1.119-1.12 2.272 2.273 3.93-3.9 1.12 1.12.001-.001z" fill="#fff"/></g><defs><clipPath id="clip0_188_431"><path fill="#fff" d="M0 0h19v19H0z"/></clipPath></defs></svg>