<svg width="19" height="19" fill="none" xmlns="http://www.w3.org/2000/svg"><g clip-path="url(#clip0_188_373)"><path d="M11.083 19a.792.792 0 01-.791-.792V14.25a.792.792 0 011.583 0v3.958a.791.791 0 01-.792.792zM4.75 19a.792.792 0 01-.792-.792V14.25a.792.792 0 111.584 0v3.958A.792.792 0 014.75 19zm9.5-1.583a.792.792 0 01-.792-.792v-3.958a.791.791 0 111.584 0v3.958a.792.792 0 01-.792.792zm-6.333 0a.792.792 0 01-.792-.792v-3.958a.791.791 0 111.583 0v3.958a.792.792 0 01-.791.792zM1.583 14.51a.793.793 0 01-.615-.294 4.38 4.38 0 01.457-5.959.792.792 0 00.273-.713 6.45 6.45 0 01-.026-2.287A6.29 6.29 0 016.73.11a6.375 6.375 0 016.915 3.514.822.822 0 00.588.45 5.977 5.977 0 013.855 8.99.792.792 0 01-1.34-.846 4.383 4.383 0 00-2.827-6.59 2.382 2.382 0 01-1.708-1.324A4.75 4.75 0 003.254 7.24a2.375 2.375 0 01-.764 2.19 2.785 2.785 0 00-.292 3.792.792.792 0 01-.616 1.289z" fill="#fff"/></g><defs><clipPath id="clip0_188_373"><path fill="#fff" d="M0 0h19v19H0z"/></clipPath></defs></svg>