<svg width="19" height="19" fill="none" xmlns="http://www.w3.org/2000/svg"><g clip-path="url(#clip0_907_8955)"><path d="M13.458 7.917a5.548 5.548 0 00-5.541 5.541A5.548 5.548 0 0013.458 19 5.548 5.548 0 0019 13.458a5.548 5.548 0 00-5.542-5.541zm0 9.5A3.963 3.963 0 019.5 13.458 3.963 3.963 0 0113.458 9.5a3.963 3.963 0 013.959 3.958 3.963 3.963 0 01-3.959 3.959zm.792-3.167v1.583a.792.792 0 01-1.583 0V14.25a.792.792 0 011.583 0zm.396-2.77a1.188 1.188 0 11-2.376-.002 1.188 1.188 0 012.376.001zm-7.521 5.937H3.167c-.874 0-1.584-.71-1.584-1.584 0-.873.71-1.583 1.584-1.583h2.375a.792.792 0 000-1.583H4.75V1.583h7.125a2.378 2.378 0 012.375 2.375v1.584a.792.792 0 001.583 0V3.958A3.963 3.963 0 0011.875 0H3.958A3.963 3.963 0 000 3.958v11.875A3.17 3.17 0 003.167 19h3.958a.792.792 0 000-1.583zM1.583 3.958c0-1.03.665-1.901 1.584-2.229v10.938c-.58 0-1.116.168-1.584.44V3.958z" fill="#fff"/></g><defs><clipPath id="clip0_907_8955"><path fill="#fff" d="M0 0h19v19H0z"/></clipPath></defs></svg>