<svg width="19" height="19" fill="none" xmlns="http://www.w3.org/2000/svg"><path d="M15.864 17a3.15 3.15 0 01-2.12-.836c-.57.528-1.33.823-2.12.823s-1.549-.295-2.12-.823a3.12 3.12 0 01-2.119.823c-.79 0-1.55-.295-2.12-.823a3.01 3.01 0 01-1.974.823 3.024 3.024 0 01-2.03-.686.686.686 0 01-.24-.472.66.66 0 01.178-.497.706.706 0 01.493-.226.73.73 0 01.512.18 1.607 1.607 0 001.968-.015c.183-.148.329-.334.426-.543a.69.69 0 01.26-.327.729.729 0 01.815 0c.12.08.21.194.26.327.131.264.337.488.594.644a1.652 1.652 0 001.716 0c.257-.156.463-.38.594-.644a.691.691 0 01.261-.325.73.73 0 01.813 0c.12.08.21.193.261.325.131.264.337.488.594.644a1.652 1.652 0 001.717 0c.256-.156.462-.38.593-.644a.69.69 0 01.26-.327.73.73 0 01.816 0c.119.08.21.194.26.327.097.21.242.395.425.541a1.607 1.607 0 001.968.016.723.723 0 01.981.066.668.668 0 01-.037.948 2.87 2.87 0 01-1.885.701zm0-4.093a3.15 3.15 0 01-2.12-.836c-.57.528-1.33.823-2.12.823s-1.549-.295-2.12-.823a3.12 3.12 0 01-2.119.823c-.79 0-1.55-.295-2.12-.823a3.01 3.01 0 01-1.974.823 3.023 3.023 0 01-2.03-.686.685.685 0 01-.24-.472.66.66 0 01.178-.497.705.705 0 01.493-.226.728.728 0 01.512.18 1.61 1.61 0 001.339.29c.231-.055.446-.16.63-.306.182-.147.328-.332.425-.542a.69.69 0 01.26-.327.728.728 0 01.815 0c.12.08.21.195.26.327.131.264.337.488.594.644a1.652 1.652 0 001.716 0c.257-.156.463-.38.594-.644a.69.69 0 01.26-.326.73.73 0 01.815 0c.12.08.21.194.26.326.131.264.337.488.594.644a1.652 1.652 0 001.717 0c.256-.156.462-.38.593-.644a.69.69 0 01.261-.326.73.73 0 01.814 0c.12.08.21.194.26.326.098.21.243.395.426.542a1.61 1.61 0 001.968.016.723.723 0 01.981.065.668.668 0 01-.037.949 2.87 2.87 0 01-1.885.7zm0-4.093a3.15 3.15 0 01-2.12-.836c-.57.528-1.33.823-2.12.823s-1.549-.295-2.12-.823a3.12 3.12 0 01-2.119.823c-.79 0-1.55-.295-2.12-.823a3.01 3.01 0 01-1.974.823 3.024 3.024 0 01-2.03-.686.688.688 0 01-.259-.476.66.66 0 01.179-.51.705.705 0 01.505-.225.73.73 0 01.518.197 1.609 1.609 0 001.968-.015c.183-.147.329-.332.426-.542a.69.69 0 01.26-.327.728.728 0 01.815 0c.12.08.21.195.26.327.131.264.337.488.594.644a1.652 1.652 0 001.716 0c.257-.156.463-.38.594-.644a.692.692 0 01.261-.325.73.73 0 01.813 0c.12.08.21.193.261.325.131.264.337.488.594.644a1.652 1.652 0 001.717 0c.256-.156.462-.38.593-.644a.69.69 0 01.26-.327.729.729 0 01.816 0 .69.69 0 01.26.327c.097.21.242.395.425.542a1.609 1.609 0 001.968.016.723.723 0 01.981.065.668.668 0 01-.037.949 2.87 2.87 0 01-1.885.698zm0-4.093a3.15 3.15 0 01-2.12-.836c-.57.528-1.33.823-2.12.823s-1.549-.295-2.12-.823a3.12 3.12 0 01-2.119.823c-.79 0-1.55-.295-2.12-.823a3.01 3.01 0 01-1.974.823 3.024 3.024 0 01-2.03-.686.688.688 0 01-.259-.476.66.66 0 01.179-.51.705.705 0 01.505-.225.73.73 0 01.518.197 1.608 1.608 0 001.968-.015c.183-.147.329-.332.426-.542a.69.69 0 01.26-.327.728.728 0 01.815 0c.12.08.21.195.26.327.131.264.337.488.594.644a1.652 1.652 0 001.716 0c.257-.156.463-.38.594-.644a.691.691 0 01.255-.322.73.73 0 01.801-.017c.12.075.214.184.269.311l.01.029c.131.264.337.487.594.644a1.652 1.652 0 001.717 0c.256-.157.462-.38.593-.644a.69.69 0 01.261-.326.73.73 0 01.814 0c.12.08.21.194.26.326.098.21.243.395.426.541a1.609 1.609 0 001.968.016.71.71 0 01.515-.189.727.727 0 01.499.226.675.675 0 01.18.503.664.664 0 01-.25.474 2.87 2.87 0 01-1.885.698z" fill="#fff"/></svg>