<svg width="28" height="28" fill="none" xmlns="http://www.w3.org/2000/svg"><path d="M22.506 7h.828a1.167 1.167 0 011.167 1.167v8.167a1.167 1.167 0 01-1.167 1.166h-2.333l-4.865-6.808a2.333 2.333 0 00-2.568-.879l-2.9.87a2.334 2.334 0 01-2.32-.585l-.341-.342a1.167 1.167 0 01.177-1.796l6.301-4.2a2.333 2.333 0 012.547-.028l4.849 3.086c.186.119.404.182.625.182zM5.865 16.678l-1.886 1.65a1.166 1.166 0 00.048 1.794l5.997 4.713a1.166 1.166 0 001.735-.338l.821-1.438a2.333 2.333 0 00-.3-2.727l-3.152-3.468a2.333 2.333 0 00-3.263-.186zM8.22 5.834H3.5A1.167 1.167 0 002.333 7v8.769c0 .47.143.93.409 1.318l.086-.077 1.884-1.65a4.083 4.083 0 015.71.327l3.153 3.468a4.084 4.084 0 01.525 4.771l-.764 1.337a2.334 2.334 0 002.028-.18l5.145-3.087a1.168 1.168 0 00.349-1.678l-6.145-8.609a.583.583 0 00-.642-.22l-2.9.87a4.084 4.084 0 01-4.06-1.023l-.342-.342a2.917 2.917 0 01.443-4.49l1.008-.67z" fill="#fff"/></svg>