<svg width="17" height="17" fill="none" xmlns="http://www.w3.org/2000/svg"><g clip-path="url(#clip0_211_4773)"><path d="M8.5 11.333A2.836 2.836 0 015.667 8.5 2.836 2.836 0 018.5 5.667 2.836 2.836 0 0111.333 8.5 2.836 2.836 0 018.5 11.333zm0-4.25c-.781 0-1.417.636-1.417 1.417S7.72 9.917 8.5 9.917 9.917 9.28 9.917 8.5 9.28 7.083 8.5 7.083zM3.542 4.958a.709.709 0 100 1.418.709.709 0 000-1.418zm9.208 2.125a.709.709 0 101.417 0 .709.709 0 00-1.417 0zM3.542 9.208a.709.709 0 100 1.418.709.709 0 000-1.418zm9.208 2.125a.709.709 0 101.417 0 .709.709 0 00-1.417 0zm-.709 3.542c-1.157 0-2.194-.283-3.197-.556-.955-.26-1.856-.507-2.823-.507-1.113 0-1.815.072-2.422.248a2.785 2.785 0 01-2.465-.457 2.817 2.817 0 01-1.133-2.27V5.987A3.57 3.57 0 012.29 2.67c.95-.363 1.848-.546 2.669-.546 1.157 0 2.193.283 3.196.556.955.26 1.856.506 2.824.506 1.112 0 1.815-.071 2.422-.247a2.785 2.785 0 012.465.456A2.817 2.817 0 0117 5.665v5.347a3.57 3.57 0 01-2.291 3.316c-.95.362-1.847.546-2.669.546zm-6.02-2.48c1.157 0 2.194.284 3.197.557.954.26 1.855.506 2.823.506.647 0 1.376-.152 2.165-.453a2.118 2.118 0 001.378-1.992V5.667a1.41 1.41 0 00-.569-1.138 1.381 1.381 0 00-1.222-.227c-.744.214-1.56.302-2.814.302-1.158 0-2.194-.282-3.197-.556-.955-.26-1.856-.506-2.824-.506-.648 0-1.375.152-2.164.453a2.118 2.118 0 00-1.379 1.992v5.346c0 .451.208.867.57 1.138.353.265.797.35 1.22.227.745-.215 1.56-.303 2.815-.303z" fill="#fff"/></g><defs><clipPath id="clip0_211_4773"><path fill="#fff" d="M0 0h17v17H0z"/></clipPath></defs></svg>