<svg width="21" height="22" fill="none" xmlns="http://www.w3.org/2000/svg"><path d="M9.005 16.849a4.11 4.11 0 01-2.885-1.18l-.01-.01a4.028 4.028 0 01-.887-1.309 3.986 3.986 0 01.888-4.398l.003.003A4.13 4.13 0 019.005 8.77h5.205a1.5 1.5 0 011.049.43 1.462 1.462 0 01.434 1.034 1.448 1.448 0 01-.434 1.035 1.486 1.486 0 01-1.05.429H8.992a1.13 1.13 0 00-.783.32l-.003.002.003.003a1.113 1.113 0 00-.006 1.573l.006.006a1.122 1.122 0 00.797.32H11.6c.81 0 1.601.236 2.274.68a4.047 4.047 0 011.508 1.812c.31.738.39 1.55.232 2.334a4.02 4.02 0 01-1.123 2.067l.003.003c-.38.376-.83.674-1.328.877A4.127 4.127 0 0111.6 22H4.093a4.11 4.11 0 01-2.885-1.18l-.009-.01a4.026 4.026 0 01-.887-1.307A3.983 3.983 0 010 17.961V7.482c0-.257.068-.51.199-.732.13-.222.317-.407.542-.536L9.463.258a1.493 1.493 0 011.704.017l8.795 6.007a1.463 1.463 0 01.638 1.2h.005v13.055a1.449 1.449 0 01-.434 1.036 1.485 1.485 0 01-1.05.43 1.5 1.5 0 01-1.049-.43 1.46 1.46 0 01-.433-1.036V8.243l-7.337-5.01-7.336 5.01v9.718a1.094 1.094 0 00.324.787l.006.005a1.124 1.124 0 00.797.32H11.6a1.136 1.136 0 00.797-.325l.003.003.003-.003a1.11 1.11 0 00.239-1.214 1.12 1.12 0 00-.416-.498 1.141 1.141 0 00-.626-.188H9.005z" fill="#424242"/></svg>