<svg width="70" height="18" fill="none" xmlns="http://www.w3.org/2000/svg"><g opacity=".8" clip-path="url(#clip0_251_5503)"><path fill-rule="evenodd" clip-rule="evenodd" d="M22.3 0a3.303 3.303 0 00-3.29 3.272l-.019 2.34h-2.328l-.215.215v1.295l.215.215h2.348v9.282l.215.215h1.422l.214-.215V7.337h2.931l.214-.215V5.827l-.214-.215h-2.93V3.603c0-1.035.84-1.877 1.873-1.877h3.189l.215-.216V.215L25.925 0H22.3zM1.52.873c-.426 0-.79.147-1.08.439-.294.292-.44.65-.44 1.063a1.502 1.502 0 001.518 1.521c.427 0 .77-.147 1.06-.438a1.48 1.48 0 00.439-1.083c0-.427-.148-.77-.438-1.063a1.45 1.45 0 00-1.06-.439zM.81 5.612l-.215.215v10.792l.215.215h1.42l.215-.215V5.827l-.215-.215H.81zm7.945 0h2.814a3.363 3.363 0 013.355 3.355l.016 7.65-.215.216h-1.421l-.215-.214V9.224c0-1.04-.845-1.887-1.883-1.887h-2.09a1.884 1.884 0 00-1.884 1.891l.018 7.39-.215.216H5.612l-.215-.215V8.975a3.363 3.363 0 013.357-3.363zM27.569.25l.215-.215h1.422l.214.215-.021 16.403-.218.216-1.4-.022-.212-.215V.25zm42.216 5.396h-1.53l-.203.147-2.585 7.705-.167.827-.174-.803-.008-.028L62.34 5.79l-.201-.143h-1.573l-.202.143-2.779 7.705-.182.833-.16-.802-.007-.027-2.585-7.705-.203-.147h-1.53l-.214.215v.109l.012.071 3.748 10.683.203.145h1.4l.2-.14 2.887-7.619.208-.886.201.859.008.027 2.865 7.619.2.14h1.401l.203-.145 3.748-10.683.012-.071v-.109l-.215-.215zm-18.74 2.638l.022.04c.255.463.445.956.565 1.466.111.466.167.96.167 1.467a6.021 6.021 0 01-.76 2.986 5.722 5.722 0 01-2.103 2.152 5.635 5.635 0 01-1.794.684 3.34 3.34 0 01-1.927-.205c-.683-.29-1.945-.785-2.723-.857l-.014-.001a.412.412 0 01-.022-.003h-.008a7.251 7.251 0 00-.741-.03 7.192 7.192 0 00-.778.032h-.01l-.017.001a.448.448 0 01-.017.002c-.779.073-2.04.567-2.724.856a3.341 3.341 0 01-1.3.266c-.21 0-.42-.02-.627-.06a5.62 5.62 0 01-1.794-.684 5.716 5.716 0 01-2.103-2.152 6.023 6.023 0 01-.76-2.987c0-1.083.255-2.088.76-2.986A5.722 5.722 0 0134.44 6.12a5.641 5.641 0 011.794-.683 3.31 3.31 0 011.927.205c.683.289 1.945.784 2.723.857a.15.15 0 01.035.003h.009c.243.022.492.032.74.03.262.003.524-.008.78-.032h.008l.02-.001h.008c.785-.074 2.047-.569 2.73-.858a3.304 3.304 0 011.928-.205c.636.125 1.24.354 1.794.683a5.711 5.711 0 012.103 2.152l.007.014zM35.38 14.918c.818.501 1.844.547 2.743.122a8.155 8.155 0 013.54-.778 8.143 8.143 0 013.588.778c.899.426 1.925.38 2.744-.122l.018-.011a3.851 3.851 0 001.409-1.524 4.481 4.481 0 00.503-2.125c0-.474-.064-.93-.191-1.354a4.368 4.368 0 00-.312-.769 3.855 3.855 0 00-1.409-1.525l-.02-.011c-.817-.502-1.843-.548-2.742-.123a8.174 8.174 0 01-3.54.779 8.157 8.157 0 01-3.588-.779c-.9-.425-1.925-.379-2.745.124l-.017.01a3.856 3.856 0 00-1.41 1.524 4.551 4.551 0 00-.503 2.124c0 .767.17 1.482.504 2.123.33.638.805 1.15 1.409 1.525l.019.011z" fill="#424242"/></g><defs><clipPath id="clip0_251_5503"><path fill="#fff" d="M0 0h70v17.141H0z"/></clipPath></defs></svg>