<svg width="183" height="29" fill="none" xmlns="http://www.w3.org/2000/svg"><g clip-path="url(#clip0_95_1646)"><path d="M11.87 22.209a5.417 5.417 0 01-3.802-1.555l-.013-.013a5.31 5.31 0 01-1.17-1.725 5.254 5.254 0 010-4.072 5.31 5.31 0 011.17-1.725l.004.004a5.388 5.388 0 011.747-1.157 5.445 5.445 0 012.064-.407h6.86a1.978 1.978 0 011.382.565 1.929 1.929 0 01.572 1.365 1.906 1.906 0 01-.572 1.364 1.954 1.954 0 01-1.382.565h-6.879a1.488 1.488 0 00-1.033.421l-.004.004.004.004a1.467 1.467 0 00-.008 2.074l.008.007a1.48 1.48 0 001.05.422h3.421a5.441 5.441 0 012.998.895 5.336 5.336 0 011.988 2.39c.408.973.514 2.044.305 3.076a5.3 5.3 0 01-1.48 2.725l.004.004c-.5.495-1.095.888-1.75 1.156A5.442 5.442 0 0115.29 29H5.395a5.418 5.418 0 01-3.802-1.555l-.012-.013A5.308 5.308 0 01.41 25.71 5.251 5.251 0 010 23.675V9.862a1.93 1.93 0 01.977-1.67L12.473.34a1.967 1.967 0 012.247.023L26.312 8.28a1.906 1.906 0 01.842 1.582h.006v17.209a1.908 1.908 0 01-.572 1.366 1.957 1.957 0 01-1.383.566 1.978 1.978 0 01-1.383-.566 1.927 1.927 0 01-.572-1.366V10.866L13.58 4.26l-9.67 6.605v12.809a1.441 1.441 0 00.427 1.037l.007.007a1.479 1.479 0 001.051.422h9.895a1.5 1.5 0 001.05-.43l.005.005.004-.004a1.453 1.453 0 00.315-1.6 1.474 1.474 0 00-.549-.656 1.503 1.503 0 00-.825-.247h-3.42z" fill="#34A844"/><path d="M39.254 21.12a8.979 8.979 0 01-2.654-1.067l1.353-2.875a8.563 8.563 0 002.263.962 9.59 9.59 0 002.602.373c1.717 0 2.576-.42 2.576-1.259a.884.884 0 00-.204-.542.904.904 0 00-.498-.305 10.575 10.575 0 00-2.16-.437 20.972 20.972 0 01-2.836-.59 4.402 4.402 0 01-1.938-1.181 3.33 3.33 0 01-.82-2.414 3.749 3.749 0 01.767-2.324 4.939 4.939 0 012.238-1.58 9.674 9.674 0 013.474-.564c.993 0 1.983.108 2.953.32a8.342 8.342 0 012.432.886l-1.352 2.85a8.167 8.167 0 00-4.033-1.026 4.146 4.146 0 00-1.952.36 1.069 1.069 0 00-.46.369 1.046 1.046 0 00-.19.555.91.91 0 00.193.57.93.93 0 00.51.329c.728.23 1.477.393 2.237.487.948.146 1.886.348 2.81.604a4.232 4.232 0 011.899 1.168c.57.654.86 1.502.807 2.363a3.616 3.616 0 01-.781 2.285 4.985 4.985 0 01-2.276 1.554 10.276 10.276 0 01-3.552.552c-1.15.002-2.295-.14-3.408-.424zm27.06-5.56h-10.59c.17.823.654 1.55 1.354 2.028a4.524 4.524 0 002.653.744 5.432 5.432 0 001.939-.32 4.703 4.703 0 001.574-1.015l2.16 2.312c-1.32 1.489-3.245 2.233-5.777 2.234a9.231 9.231 0 01-4.189-.912 6.73 6.73 0 01-2.81-2.53 6.9 6.9 0 01-.988-3.672 6.987 6.987 0 01.975-3.659 6.796 6.796 0 012.68-2.542 8.386 8.386 0 017.532-.038 6.426 6.426 0 012.615 2.503 7.394 7.394 0 01.95 3.788c0 .051-.026.41-.078 1.079zm-9.497-4.443a3.266 3.266 0 00-1.145 2.106h6.895a3.3 3.3 0 00-1.145-2.093 3.45 3.45 0 00-2.29-.784 3.523 3.523 0 00-2.315.771zm23.768-2.914a6.406 6.406 0 012.51 2.49 7.442 7.442 0 01.911 3.737 7.437 7.437 0 01-.91 3.736 6.402 6.402 0 01-2.511 2.491 7.202 7.202 0 01-3.552.886 5.47 5.47 0 01-2.293-.376 5.409 5.409 0 01-1.921-1.293v6.445h-4.06V7.522h3.877v1.592c1.006-1.198 2.472-1.797 4.397-1.797a7.21 7.21 0 013.552.886zm-1.427 9.013a3.848 3.848 0 001.002-2.786 3.849 3.849 0 00-1.002-2.786 3.668 3.668 0 00-2.563-1.04c-.96 0-1.88.374-2.563 1.04a3.846 3.846 0 00-1.001 2.786 3.845 3.845 0 001.001 2.786 3.668 3.668 0 002.563 1.04c.96 0 1.88-.373 2.563-1.04zm17.91 3.454c-.442.31-.941.533-1.47.655-.6.148-1.216.221-1.834.219-1.665 0-2.953-.42-3.864-1.259-.91-.838-1.366-2.071-1.366-3.698v-5.675h-2.159V7.831h2.16V4.467h4.058V7.83h3.486v3.081h-3.486v5.624c-.032.49.131.975.455 1.348a1.692 1.692 0 001.288.475 2.633 2.633 0 001.64-.513l1.092 2.824zm3.07-15.716a2.058 2.058 0 01-.702-1.592 2.06 2.06 0 01.702-1.593c.5-.44 1.153-.67 1.822-.642a2.661 2.661 0 011.821.617 1.974 1.974 0 01.702 1.54 2.153 2.153 0 01-.702 1.657 2.565 2.565 0 01-1.821.655 2.595 2.595 0 01-1.822-.642zM99.93 7.52h4.059v13.816H99.93V7.52zm12.931 8.399l-1.951 1.9v3.518h-4.058V2.283h4.058v10.785l5.932-5.546h4.84l-5.828 5.854 6.348 7.961h-4.917l-4.424-5.418zm26.394-13.636v19.054h-3.877v-1.592c-1.006 1.198-2.464 1.798-4.371 1.798a7.346 7.346 0 01-3.578-.874 6.295 6.295 0 01-2.511-2.49 7.508 7.508 0 01-.91-3.75 7.509 7.509 0 01.91-3.749 6.297 6.297 0 012.511-2.49 7.35 7.35 0 013.578-.874 5.388 5.388 0 012.282.375c.724.288 1.375.73 1.907 1.294V2.283h4.059zm-4.996 14.932a3.816 3.816 0 001.015-2.786 3.817 3.817 0 00-1.015-2.786 3.668 3.668 0 00-2.563-1.04c-.959 0-1.88.374-2.562 1.04a3.822 3.822 0 00-1.015 2.786 3.822 3.822 0 001.015 2.786 3.667 3.667 0 002.562 1.04c.96 0 1.881-.373 2.563-1.04zm11.097 3.415a6.815 6.815 0 01-2.745-2.529 6.901 6.901 0 01-.989-3.672 6.9 6.9 0 01.989-3.671 6.827 6.827 0 012.745-2.53 9.052 9.052 0 017.922 0 6.858 6.858 0 012.732 2.53 6.891 6.891 0 01.988 3.671 6.891 6.891 0 01-.988 3.672 6.846 6.846 0 01-2.732 2.53 9.048 9.048 0 01-7.922 0zm6.201-3.415a3.849 3.849 0 001.001-2.786 3.849 3.849 0 00-1.001-2.786 3.42 3.42 0 00-2.563-1.04 3.464 3.464 0 00-1.4.25c-.444.18-.844.449-1.176.79a3.817 3.817 0 00-1.015 2.786 3.817 3.817 0 001.015 2.786 3.44 3.44 0 002.576 1.04 3.388 3.388 0 002.563-1.04zm29.895-8.746c1.032 1.018 1.548 2.546 1.548 4.584v7.908h-4.059V13.67a3.711 3.711 0 00-.69-2.453 2.423 2.423 0 00-.887-.628 2.454 2.454 0 00-1.077-.18 2.93 2.93 0 00-1.234.208 2.893 2.893 0 00-1.029.703 3.895 3.895 0 00-.833 2.71v6.932h-4.059V13.67c0-2.175-.884-3.262-2.653-3.262a2.87 2.87 0 00-2.238.912 3.895 3.895 0 00-.833 2.71v6.932h-4.058V7.146h3.876v1.592a5.13 5.13 0 011.913-1.335 6.503 6.503 0 012.484-.462 6.08 6.08 0 012.68.578 4.732 4.732 0 011.925 1.681 5.737 5.737 0 012.173-1.669 6.932 6.932 0 012.875-.59 5.711 5.711 0 012.247.34 5.659 5.659 0 011.929 1.188z" fill="#000"/></g><defs><clipPath id="clip0_95_1646"><path fill="#fff" d="M0 0h183v29H0z"/></clipPath></defs></svg>