<svg width="685" height="733" fill="none" xmlns="http://www.w3.org/2000/svg"><path d="M299.365 561.288c-35.968-.017-70.458-14.153-95.894-39.305l-.317-.313a134.229 134.229 0 01-29.501-43.603 133.014 133.014 0 01-10.361-51.455c0-17.658 3.52-35.143 10.361-51.454a134.229 134.229 0 0129.501-43.603l.101.099a135.842 135.842 0 0144.072-29.235 137.034 137.034 0 0152.038-10.289l.849.013h172.192a49.761 49.761 0 0118.866 3.712 49.337 49.337 0 0115.994 10.569 48.72 48.72 0 0110.687 15.819 48.284 48.284 0 013.753 18.659 48.284 48.284 0 01-3.753 18.659 48.72 48.72 0 01-10.687 15.819 49.321 49.321 0 01-15.994 10.569 49.761 49.761 0 01-18.866 3.712H299.365l-.456-.007c-9.756.045-19.106 3.87-26.043 10.654l-.101.093.101.1c-6.992 6.957-10.933 16.358-10.97 26.168-.036 9.81 3.835 19.239 10.775 26.247l.195.19a37.316 37.316 0 0012.174 7.944 37.62 37.62 0 0014.325 2.716h86.27c26.914-.03 53.231 7.843 75.616 22.622 22.384 14.778 39.829 35.797 50.123 60.391a133.063 133.063 0 017.698 77.761c-5.275 26.102-18.266 50.068-37.328 68.86l.101.1a135.78 135.78 0 01-44.128 29.206 136.968 136.968 0 01-52.082 10.219H136.069c-35.967-.017-70.457-14.154-95.893-39.305l-.313-.313a134.145 134.145 0 01-29.49-43.556A132.945 132.945 0 010 598.345V249.256a48.34 48.34 0 016.602-24.381 49.021 49.021 0 0118.046-17.848L314.58 8.605A49.556 49.556 0 01343.001.002a49.536 49.536 0 0128.24 9.167L663.619 209.26a48.728 48.728 0 0115.602 17.409 48.115 48.115 0 015.622 22.588H685v434.907a48.302 48.302 0 01-3.73 18.683 48.735 48.735 0 01-10.682 15.845 49.355 49.355 0 01-16.004 10.589A49.778 49.778 0 01635.7 733a49.783 49.783 0 01-18.885-3.719 49.355 49.355 0 01-16.004-10.589 48.732 48.732 0 01-10.681-15.845 48.303 48.303 0 01-3.731-18.683V274.617L342.498 107.702 98.601 274.617v323.728a36.5 36.5 0 002.746 14.167 36.833 36.833 0 008.033 12.04l.191.19a37.316 37.316 0 0012.174 7.944 37.632 37.632 0 0014.324 2.717h249.566a37.732 37.732 0 0014.343-2.811 37.417 37.417 0 0012.155-8.04l.102.101.09-.101a37.024 37.024 0 0010.153-19.021 36.772 36.772 0 00-2.207-21.398 37.241 37.241 0 00-13.825-16.602 37.861 37.861 0 00-20.811-6.244l-86.27.001z" fill="#FBFBFB"/></svg>