<svg width="24" height="24" fill="none" xmlns="http://www.w3.org/2000/svg"><g clip-path="url(#clip0_284_7555)"><path d="M16.949 2.05A6.95 6.95 0 0012 0c-1.87 0-3.628.728-4.95 2.05-2.729 2.729-2.729 7.17.008 9.907l2.495 2.44a3.49 3.49 0 002.447.99 3.49 3.49 0 002.447-.99l2.502-2.448A6.955 6.955 0 0019 6.999c0-1.87-.729-3.626-2.051-4.949zM12 9.99a3 3 0 110-6 3 3 0 010 6zm12 6.772a1 1 0 01-.485.863l-9.861 5.917a3.21 3.21 0 01-3.306 0L.485 17.625a1 1 0 01.01-1.72l4.855-2.842c.1.11.203.219.309.325l2.495 2.439A5.467 5.467 0 0012 17.388a5.469 5.469 0 003.846-1.561l2.518-2.463a9.04 9.04 0 00.287-.301l4.854 2.841c.305.179.493.506.495.858z" fill="#34A844"/></g><defs><clipPath id="clip0_284_7555"><path fill="#fff" d="M0 0h24v24H0z"/></clipPath></defs></svg>