<svg xmlns="http://www.w3.org/2000/svg" width="24" height="24" fill="none"><g clip-path="url(#clip0_284_7216)"><path d="M8.534 14.465A4.967 4.967 0 005 13.001c-1.335 0-2.59.52-3.536 1.464-1.95 1.949-1.95 5.122.026 7.096l1.99 1.849c.428.398.976.596 1.524.596s1.1-.2 1.528-.6l2.001-1.871A4.964 4.964 0 009.997 18c0-1.335-.52-2.591-1.465-3.536l.002.001zm8.945-4.055c.428.397.976.596 1.524.596s1.101-.2 1.53-.6l2-1.871a5.005 5.005 0 000-7.071A4.97 4.97 0 0018.998 0c-1.335 0-2.59.52-3.536 1.464-1.95 1.949-1.95 5.122.026 7.096l1.99 1.849.001.001zM24 20c0 2.206-1.794 4-4 4h-9a1 1 0 010-2h9c1.103 0 2-.897 2-2s-.897-2-2-2h-5c-2.206 0-4-1.794-4-4a4.008 4.008 0 012.667-3.772 1 1 0 11.666 1.886A2.004 2.004 0 0013 14c0 1.103.897 2 2 2h5c2.206 0 4 1.794 4 4z" fill="#3877F2"/></g><defs><clipPath id="clip0_284_7216"><path fill="#fff" d="M0 0h24v24H0z"/></clipPath></defs></svg>