<svg xmlns="http://www.w3.org/2000/svg" width="24" height="24" fill="none"><g clip-path="url(#clip0_284_7190)"><path d="M22.535 22.535A4.967 4.967 0 0024 19a4.972 4.972 0 00-1.473-3.543L19 12.007l-3.535 3.458A4.965 4.965 0 0014 19c0 1.336.521 2.592 1.464 3.535A4.971 4.971 0 0019 24a4.967 4.967 0 003.535-1.465zM6 0v10h4V0H6zm4 22V12H6v10h4zm6-22h-4v10h4V0zm3 0h-1v10h4V3c0-1.654-1.346-3-3-3zM4 12H0v10h4V12zm0-2V0H3C1.346 0 0 1.346 0 3v7h4zm12.147 2H12v7c0-1.871.729-3.629 2.052-4.95L16.147 12z" fill="#3877F2"/></g><defs><clipPath id="clip0_284_7190"><path fill="#fff" d="M0 0h24v24H0z"/></clipPath></defs></svg>