<svg xmlns="http://www.w3.org/2000/svg" width="24" height="24" fill="none"><g clip-path="url(#clip0_284_7221)"><path d="M12 18.837a3.208 3.208 0 01-1.652-.459L.486 12.461a1 1 0 111.029-1.715l9.86 5.917c.386.23.865.23 1.25 0l9.86-5.917a1 1 0 111.03 1.715l-9.861 5.917a3.21 3.21 0 01-1.653.46zm1.654 3.836l9.86-5.917a1 1 0 10-1.028-1.715l-9.862 5.917c-.384.23-.863.23-1.248 0l-9.86-5.917a1 1 0 10-1.029 1.715l9.86 5.917a3.202 3.202 0 003.308 0h-.001zM12 5.833l5.308-3.185L13.654.455a3.208 3.208 0 00-3.307 0L6.692 2.648 12 5.833zm11.515.54l-4.263-2.559L13.945 7l5.692 3.415 3.879-2.327a1 1 0 000-1.715zm-13.46.626L4.75 3.814.486 6.372a1 1 0 000 1.714l3.879 2.327L10.057 7zM12 8.165L6.309 11.58l4.039 2.423a3.208 3.208 0 003.306 0l4.039-2.423L12 8.165z" fill="#3877F2"/></g><defs><clipPath id="clip0_284_7221"><path fill="#fff" d="M0 0h24v24H0z"/></clipPath></defs></svg>