<svg width="24" height="24" fill="none" xmlns="http://www.w3.org/2000/svg"><path d="M20.999 18.968a4.874 4.874 0 01-2.8-.9.336.336 0 00-.405 0 4.912 4.912 0 01-5.593 0 .336.336 0 00-.405 0 4.913 4.913 0 01-5.593 0 .336.336 0 00-.406 0 4.762 4.762 0 01-5.048.3 1.502 1.502 0 111.506-2.6 1.706 1.706 0 001.805-.148 3.348 3.348 0 013.882 0 1.851 1.851 0 002.116 0 3.348 3.348 0 013.882 0 1.85 1.85 0 002.116 0 3.348 3.348 0 013.882 0 1.7 1.7 0 001.8.148 1.502 1.502 0 011.505 2.6 4.51 4.51 0 01-2.244.6zm2.252 4.399a1.502 1.502 0 10-1.505-2.6 1.708 1.708 0 01-1.8-.147 3.348 3.348 0 00-3.882 0 1.851 1.851 0 01-2.116 0 3.348 3.348 0 00-3.882 0 1.851 1.851 0 01-2.116 0 3.348 3.348 0 00-3.882 0 1.709 1.709 0 01-1.805.149 1.503 1.503 0 00-1.51 2.598 4.762 4.762 0 005.048-.3.335.335 0 01.406 0 4.913 4.913 0 005.592 0 .335.335 0 01.406 0 4.913 4.913 0 005.592 0 .335.335 0 01.406 0c.817.58 1.793.895 2.796.9a4.499 4.499 0 002.252-.6zM15.678 6.972h-2.177V1.5a1.5 1.5 0 00-2.999 0v5.472H8.325a1.007 1.007 0 00-.706 1.708l3.368 3.367a1.434 1.434 0 002.03 0l3.367-3.367a1.005 1.005 0 00-.706-1.708z" fill="#34A844"/></svg>