<svg xmlns="http://www.w3.org/2000/svg" width="17" height="17" fill="none"><path d="M8.5 11.333A2.836 2.836 0 015.665 8.5a2.836 2.836 0 012.833-2.833A2.836 2.836 0 0111.333 8.5a2.836 2.836 0 01-2.834 2.833zm0-4.25a1.418 1.418 0 00-.001 2.834c.782 0 1.417-.636 1.417-1.417s-.635-1.417-1.417-1.417zM3.54 4.958a.709.709 0 100 1.418.709.709 0 000-1.418zm9.208 2.125a.709.709 0 101.417 0 .709.709 0 00-1.417 0zM3.541 9.208a.709.709 0 100 1.418.709.709 0 000-1.418zm9.208 2.125a.709.709 0 101.418 0 .709.709 0 00-1.418 0zm-.709 3.542c-1.157 0-2.194-.283-3.196-.556-.955-.26-1.856-.507-2.824-.507-1.113 0-1.815.072-2.422.248a2.785 2.785 0 01-2.465-.457A2.817 2.817 0 010 11.334V5.987A3.57 3.57 0 012.29 2.67c.95-.363 1.848-.546 2.669-.546 1.157 0 2.194.283 3.197.556.955.26 1.856.506 2.823.506 1.112 0 1.815-.071 2.422-.247a2.785 2.785 0 012.466.456A2.817 2.817 0 0117 5.666v5.347a3.57 3.57 0 01-2.29 3.316c-.95.362-1.848.546-2.67.546zm-6.02-2.48c1.158 0 2.194.284 3.197.557.955.26 1.856.506 2.823.506.648 0 1.376-.152 2.165-.453a2.118 2.118 0 001.378-1.992V5.667a1.41 1.41 0 00-.569-1.138 1.38 1.38 0 00-1.221-.227c-.745.214-1.56.302-2.815.302-1.158 0-2.194-.282-3.197-.556-.955-.26-1.856-.506-2.823-.506-.649 0-1.376.152-2.165.453a2.118 2.118 0 00-1.378 1.992v5.346c0 .451.207.867.568 1.138.354.265.798.35 1.221.227.745-.215 1.561-.303 2.815-.303h.001z" fill="#3877F2"/></svg>