<svg xmlns="http://www.w3.org/2000/svg" width="17" height="17" fill="none"><path d="M13.458 15.584H3.542A3.546 3.546 0 010 12.042V4.959a3.546 3.546 0 013.542-3.542h9.916A3.546 3.546 0 0117 4.959v7.083a3.546 3.546 0 01-3.542 3.542zM3.542 2.834a2.128 2.128 0 00-2.125 2.125v7.083c0 1.172.953 2.125 2.125 2.125h9.916a2.128 2.128 0 002.125-2.125V4.959a2.128 2.128 0 00-2.125-2.125H3.542zm9.208 6.375H9.917A1.418 1.418 0 018.5 7.792V6.375c0-.781.635-1.416 1.417-1.416h2.833c.781 0 1.417.635 1.417 1.416v1.417c0 .781-.636 1.417-1.417 1.417zM9.917 6.375v1.417h2.834V6.375H9.917zM7.083 8.5a.709.709 0 00-.708-.708H3.542a.709.709 0 000 1.417h2.833a.709.709 0 00.708-.709zm7.084 2.834a.709.709 0 00-.709-.709H3.542a.709.709 0 000 1.417h9.916a.709.709 0 00.709-.708z" fill="#3877F2"/></svg>