<svg xmlns="http://www.w3.org/2000/svg" width="17" height="17" fill="none"><g clip-path="url(#clip0_449_42)"><path d="M4.25 6.375C1.827 6.375 0 7.441 0 8.855v5.666C0 15.934 1.827 17 4.25 17s4.25-1.066 4.25-2.48V8.855c0-1.413-1.827-2.479-4.25-2.479zm2.833 5.313c0 .374-1.076 1.062-2.833 1.062-1.757 0-2.833-.688-2.833-1.063v-.954c.74.377 1.724.6 2.833.6 1.109 0 2.092-.223 2.833-.6v.954zM4.25 7.792c1.757 0 2.833.687 2.833 1.062S6.007 9.917 4.25 9.917c-1.757 0-2.833-.688-2.833-1.063S2.493 7.792 4.25 7.792zm0 7.791c-1.757 0-2.833-.688-2.833-1.062v-.955c.74.377 1.724.6 2.833.6 1.109 0 2.092-.223 2.833-.6v.955c0 .374-1.076 1.062-2.833 1.062zM17 3.542v9.916A3.546 3.546 0 0113.458 17H9.917a.708.708 0 110-1.417h3.541a2.128 2.128 0 002.125-2.125V3.542a2.128 2.128 0 00-2.125-2.125H6.375A2.128 2.128 0 004.25 3.542v.708a.708.708 0 11-1.417 0v-.708A3.546 3.546 0 016.375 0h7.083A3.546 3.546 0 0117 3.542zM9.208 7.083a.708.708 0 110-1.416h3.542V4.25H7.083v.354a.708.708 0 11-1.416 0V4.25c0-.781.635-1.417 1.416-1.417h5.667c.781 0 1.417.636 1.417 1.417v1.417c0 .781-.636 1.416-1.417 1.416H9.208zm.709 5.667c0-.391.316-.708.708-.708h2.833a.708.708 0 110 1.416h-2.833a.708.708 0 01-.708-.708zm0-2.833v-.709a.708.708 0 111.416 0v.709a.708.708 0 11-1.416 0zm4.25 0a.708.708 0 11-1.417 0v-.709a.708.708 0 111.417 0v.709z" fill="#3877F2"/></g><defs><clipPath id="clip0_449_42"><path fill="#fff" d="M0 0h17v17H0z"/></clipPath></defs></svg>