<svg width="1822" height="726" fill="none" xmlns="http://www.w3.org/2000/svg"><path d="M276.64 567.64c-33.238-.015-65.11-13.052-88.615-36.248l-.292-.289a123.763 123.763 0 01-27.263-40.212 122.47 122.47 0 01-9.574-47.453c0-16.286 3.253-32.411 9.574-47.454a123.773 123.773 0 0127.263-40.212l.093.092a125.545 125.545 0 0140.726-26.962 126.859 126.859 0 0148.087-9.489l.785.012H1775.94c5.98 0 11.91 1.163 17.44 3.423a45.673 45.673 0 0114.78 9.748 44.93 44.93 0 019.87 14.588 44.457 44.457 0 013.47 17.209c0 5.905-1.18 11.752-3.47 17.208a44.92 44.92 0 01-9.87 14.588 45.673 45.673 0 01-14.78 9.748 46.124 46.124 0 01-17.44 3.423H276.64l-.422-.006c-9.015.041-17.655 3.568-24.066 9.825l-.093.086.093.092c-6.461 6.416-10.103 15.086-10.137 24.133-.034 9.047 3.543 17.743 9.957 24.206l.18.175a34.485 34.485 0 0011.25 7.327 34.857 34.857 0 0013.237 2.505h79.721c24.871-.028 49.19 7.233 69.876 20.862 20.685 13.629 36.806 33.013 46.318 55.695a122.489 122.489 0 017.114 71.714c-4.875 24.072-16.88 46.174-34.494 63.505l.093.092a125.502 125.502 0 01-40.778 26.936 126.819 126.819 0 01-48.129 9.424H125.74c-33.237-.016-65.11-13.054-88.614-36.249l-.29-.289a123.677 123.677 0 01-27.251-40.169A122.388 122.388 0 010 601.816V279.874a44.517 44.517 0 016.101-22.486 45.266 45.266 0 0116.675-16.46L290.7 57.935a45.86 45.86 0 0126.264-7.933 45.837 45.837 0 0126.096 8.454l270.183 184.532a44.975 44.975 0 0114.418 16.054 44.318 44.318 0 015.195 20.832H633v401.087a44.476 44.476 0 01-3.447 17.231 44.955 44.955 0 01-9.871 14.612 45.607 45.607 0 01-14.789 9.766 46.064 46.064 0 01-17.451 3.43 46.064 46.064 0 01-17.451-3.43 45.607 45.607 0 01-14.789-9.766 44.955 44.955 0 01-9.871-14.612 44.476 44.476 0 01-3.447-17.231V303.262L316.498 149.327 91.116 303.262v298.554a33.613 33.613 0 002.537 13.066 33.954 33.954 0 007.424 11.103l.176.175a34.485 34.485 0 0011.25 7.327 34.857 34.857 0 0013.237 2.505h230.62a34.93 34.93 0 0013.255-2.592 34.573 34.573 0 0011.232-7.415l.094.093.083-.093a34.11 34.11 0 009.382-17.541 33.848 33.848 0 00-2.038-19.734 34.366 34.366 0 00-12.776-15.312 35.041 35.041 0 00-19.232-5.758h-79.72z" fill="#3772E6"/><path fill="#3772E6" d="M1467 596V0h90v596z"/></svg>