<svg width="617" height="18" fill="none" xmlns="http://www.w3.org/2000/svg"><mask id="a" style="mask-type:alpha" maskUnits="userSpaceOnUse" x="0" y="0" width="617" height="18"><path fill="#2260D8" d="M0 0h617v18H0z"/></mask><g mask="url(#a)" fill="#3877F2"><path d="M13.338-3.334L19.4.166-2.1 37.405l-6.062-3.5zm17.562 0l6.062 3.5-21.5 37.239-6.062-3.5zm17.563 0l6.062 3.5-21.5 37.24-6.062-3.5zm17.562 0l6.062 3.5-21.5 37.24-6.062-3.5zm17.562 0l6.062 3.5-21.5 37.24-6.062-3.5zm17.562 0l6.062 3.5-21.5 37.24-6.062-3.5zm17.562 0l6.062 3.5-21.5 37.24-6.062-3.5zm17.562 0l6.062 3.5-21.5 37.24-6.062-3.5zm17.563 0l6.062 3.5-21.5 37.24-6.062-3.5zm17.562 0l6.062 3.5-21.5 37.24-6.062-3.5zm17.562 0l6.062 3.5-21.5 37.24-6.062-3.5zm17.562 0l6.062 3.5-21.5 37.24-6.062-3.5zm17.562 0l6.062 3.5-21.5 37.24-6.062-3.5zm17.562 0l6.062 3.5-21.5 37.24-6.062-3.5zm17.563 0l6.062 3.5-21.5 37.24-6.062-3.5zm17.562 0l6.062 3.5-21.5 37.24-6.062-3.5zm17.562 0l6.062 3.5-21.5 37.24-6.062-3.5zm17.562 0l6.062 3.5-21.5 37.24-6.062-3.5zm17.562 0l6.062 3.5-21.5 37.24-6.062-3.5zm17.562 0l6.062 3.5-21.5 37.24-6.062-3.5zm17.563 0l6.062 3.5-21.5 37.24-6.062-3.5zm17.562 0l6.062 3.5-21.5 37.24-6.062-3.5zm17.562 0l6.062 3.5-21.5 37.24-6.062-3.5zm17.562 0l6.062 3.5-21.5 37.24-6.062-3.5zm17.562 0l6.062 3.5-21.5 37.24-6.062-3.5zm17.562 0l6.062 3.5-21.5 37.24-6.062-3.5zm17.563 0l6.062 3.5-21.5 37.24-6.062-3.5zm17.562 0l6.062 3.5-21.5 37.24-6.062-3.5zm17.562 0l6.062 3.5-21.5 37.24-6.062-3.5zm17.562 0l6.062 3.5-21.5 37.24-6.062-3.5zm17.562 0l6.062 3.5-21.5 37.24-6.062-3.5zm17.562 0l6.062 3.5-21.5 37.24-6.062-3.5zm17.563 0l6.062 3.5-21.5 37.24-6.062-3.5zm17.562 0l6.062 3.5-21.5 37.24-6.062-3.5zm17.562 0l6.062 3.5-21.5 37.24-6.062-3.5z"/></g></svg>