<svg width="517" height="553" fill="none" xmlns="http://www.w3.org/2000/svg"><path d="M225.944 423.454c-27.146-.012-53.178-10.677-72.375-29.652l-.239-.237a101.258 101.258 0 01-22.267-32.895 100.338 100.338 0 01-7.82-38.819c0-13.322 2.658-26.514 7.82-38.819a101.262 101.262 0 0122.267-32.896l.076.075a102.527 102.527 0 0133.263-22.056 103.457 103.457 0 0139.275-7.762l.641.01h129.961c4.886 0 9.725.951 14.239 2.8a37.228 37.228 0 0112.071 7.974 36.75 36.75 0 018.066 11.934 36.42 36.42 0 012.833 14.077 36.42 36.42 0 01-2.833 14.077 36.75 36.75 0 01-8.066 11.934 37.228 37.228 0 01-12.071 7.974 37.573 37.573 0 01-14.239 2.8H225.944l-.344-.005c-7.363.034-14.42 2.92-19.656 8.038l-.076.07.076.075c-5.277 5.249-8.252 12.342-8.279 19.742-.028 7.401 2.894 14.515 8.132 19.802l.147.143a28.16 28.16 0 009.189 5.994 28.409 28.409 0 0010.811 2.049h65.112c20.313-.023 40.176 5.917 57.07 17.066 16.895 11.15 30.061 27.007 37.831 45.562a100.346 100.346 0 015.81 58.665c-3.981 19.692-13.787 37.773-28.173 51.95l.076.076a102.485 102.485 0 01-33.305 22.034 103.43 103.43 0 01-39.309 7.709H102.698c-27.147-.013-53.178-10.678-72.376-29.653l-.236-.236a101.197 101.197 0 01-22.257-32.86A100.26 100.26 0 010 451.412V188.048a36.462 36.462 0 014.983-18.395 37.002 37.002 0 0113.62-13.465L237.428 6.492a37.41 37.41 0 0121.45-6.49 37.398 37.398 0 0121.314 6.915l220.671 150.956a36.763 36.763 0 0111.775 13.133 36.294 36.294 0 014.244 17.042H517v328.108a36.403 36.403 0 01-2.816 14.095 36.75 36.75 0 01-8.062 11.954 37.235 37.235 0 01-12.078 7.989A37.572 37.572 0 01479.791 553c-4.892 0-9.735-.953-14.253-2.806a37.24 37.24 0 01-12.079-7.989 36.765 36.765 0 01-8.062-11.954 36.42 36.42 0 01-2.815-14.095V207.181L258.498 81.254 74.418 207.181v244.231a27.532 27.532 0 002.073 10.688 27.78 27.78 0 006.063 9.083l.144.144a28.167 28.167 0 009.189 5.993 28.43 28.43 0 0010.811 2.049h188.358a28.486 28.486 0 0010.826-2.121 28.2 28.2 0 009.173-6.065l.077.076.068-.076a27.92 27.92 0 007.663-14.35 27.742 27.742 0 00-1.665-16.143 28.108 28.108 0 00-10.435-12.526 28.587 28.587 0 00-15.707-4.71h-65.112z" fill="#FBFBFB"/></svg>