<svg width="543" height="581" fill="none" xmlns="http://www.w3.org/2000/svg"><path d="M237.307 444.895c-28.512-.013-55.853-11.218-76.015-31.154l-.251-.248a106.386 106.386 0 01-23.386-34.562 105.419 105.419 0 01-8.214-40.784c0-13.997 2.791-27.856 8.214-40.785a106.392 106.392 0 0123.386-34.561l.08.079a107.68 107.68 0 0134.936-23.173 108.638 108.638 0 0141.25-8.155l.673.01h136.496c5.133 0 10.214 1 14.956 2.942a39.109 39.109 0 0112.678 8.378 38.624 38.624 0 018.472 12.538 38.278 38.278 0 012.975 14.79 38.275 38.275 0 01-2.975 14.79 38.613 38.613 0 01-8.472 12.538 39.109 39.109 0 01-12.678 8.378 39.467 39.467 0 01-14.956 2.942H237.307l-.362-.005c-7.733.035-15.145 3.067-20.644 8.444l-.08.074.08.079c-5.543 5.515-8.667 12.966-8.696 20.742-.029 7.775 3.04 15.249 8.542 20.804l.154.151a29.574 29.574 0 009.651 6.297 29.83 29.83 0 0011.355 2.152h68.386c21.335-.023 42.196 6.217 59.941 17.931 17.744 11.714 31.573 28.374 39.732 47.868a105.46 105.46 0 016.103 61.636c-4.182 20.689-14.48 39.685-29.59 54.58l.08.08a107.627 107.627 0 01-34.98 23.15 108.6 108.6 0 01-41.286 8.099H107.862c-28.511-.013-55.852-11.219-76.015-31.154l-.248-.248a106.328 106.328 0 01-23.377-34.524A105.37 105.37 0 010 474.268V197.569a38.315 38.315 0 015.234-19.326 38.866 38.866 0 0114.304-14.147L249.368 6.82A39.285 39.285 0 01271.897.002a39.27 39.27 0 0122.386 7.265l231.769 158.6a38.62 38.62 0 0112.367 13.798 38.145 38.145 0 014.457 17.904H543v344.722a38.288 38.288 0 01-2.957 14.809 38.622 38.622 0 01-8.468 12.559 39.1 39.1 0 01-12.686 8.393A39.458 39.458 0 01503.92 581a39.459 39.459 0 01-14.97-2.948 39.1 39.1 0 01-12.686-8.393 38.637 38.637 0 01-8.468-12.559 38.288 38.288 0 01-2.957-14.809v-324.62L271.498 85.368 78.161 217.671v256.597a28.93 28.93 0 002.177 11.229 29.2 29.2 0 006.368 9.544l.151.15a29.578 29.578 0 009.65 6.297 29.836 29.836 0 0011.355 2.153h197.831a29.911 29.911 0 0011.37-2.228 29.64 29.64 0 009.635-6.372l.081.079.071-.079a29.35 29.35 0 008.048-15.077 29.148 29.148 0 00-1.748-16.961 29.539 29.539 0 00-10.96-13.16 30.016 30.016 0 00-16.497-4.948h-68.386z" fill="#316FEA"/></svg>