<?xml version="1.0" encoding="utf-8"?><svg viewBox="0 0 50 50" xmlns="http://www.w3.org/2000/svg" xmlns:xlink="http://www.w3.org/1999/xlink"><style>:root>svg{display:none}:root>svg:target{display:block}</style><svg fill="none" viewBox="0 0 24 24" id="icon-calc" xmlns="http://www.w3.org/2000/svg"><path fill-rule="evenodd" clip-rule="evenodd" d="M12 22c-4.243 0-6.364 0-7.682-1.465C3 19.072 3 16.714 3 12s0-7.071 1.318-8.536C5.636 2 7.758 2 12 2c4.243 0 6.364 0 7.682 1.464C21 4.93 21 7.286 21 12c0 4.714 0 7.071-1.318 8.535C18.364 22 16.242 22 12 22zm3-16H9c-.465 0-.697 0-.888.051a1.5 1.5 0 00-1.06 1.06C7 7.304 7 7.536 7 8s0 .697.051.888a1.5 1.5 0 001.06 1.06C8.304 10 8.536 10 9 10h6c.465 0 .697 0 .888-.051a1.5 1.5 0 001.06-1.06C17 8.696 17 8.464 17 8s0-.697-.051-.888a1.5 1.5 0 00-1.06-1.06C15.697 6 15.464 6 15 6zm-6 7a1 1 0 11-2 0 1 1 0 012 0zm3 1a1 1 0 100-2 1 1 0 000 2zm5-1a1 1 0 11-2 0 1 1 0 012 0zm-1 5a1 1 0 100-2 1 1 0 000 2zm-3-1a1 1 0 11-2 0 1 1 0 012 0zm-5 1a1 1 0 100-2 1 1 0 000 2z" fill="#fff"/></svg><svg fill="none" viewBox="0 0 27 27" id="icon-call" xmlns="http://www.w3.org/2000/svg"><path d="M7.447 12.139a16.984 16.984 0 007.414 7.413l2.475-2.474a1.129 1.129 0 011.148-.282c1.26.416 2.61.642 4.016.642a1.125 1.125 0 011.125 1.125V22.5a1.125 1.125 0 01-1.125 1.125A19.125 19.125 0 013.375 4.5 1.125 1.125 0 014.5 3.375h3.938A1.125 1.125 0 019.562 4.5c0 1.406.226 2.756.642 4.016.123.394.034.833-.282 1.148l-2.475 2.475z" fill="currentColor"/></svg><svg fill="none" viewBox="0 0 21 21" id="icon-hamburger" xmlns="http://www.w3.org/2000/svg"><g clip-path="url(#cclip0_367_2766)" fill="#424242"><path d="M18.938 9.295H2.063a1.205 1.205 0 100 2.41h16.875a1.205 1.205 0 000-2.41zM2.063 6.08h16.875a1.205 1.205 0 000-2.41H2.063a1.205 1.205 0 000 2.41zM18.938 14.92H2.063a1.205 1.205 0 100 2.41h16.875a1.205 1.205 0 000-2.41z"/></g><defs><clipPath id="cclip0_367_2766"><path fill="#fff" transform="translate(.857 .857)" d="M0 0h19.286v19.286H0z"/></clipPath></defs></svg><svg fill="none" viewBox="0 0 50 50" id="icon-play" xmlns="http://www.w3.org/2000/svg"><path d="M19.94 7.027a4.583 4.583 0 00-6.828 3.993V38.52a4.584 4.584 0 006.829 3.996l24.442-13.75a4.583 4.583 0 000-7.989L19.941 7.026z" fill="#fff"/></svg><svg fill="none" viewBox="0 0 14 14" id="icon-search" xmlns="http://www.w3.org/2000/svg"><path d="M13.744 12.51l-2.71-2.711A6.127 6.127 0 109.8 11.034l2.71 2.71a.872.872 0 101.234-1.233v-.001zm-7.593-2a4.36 4.36 0 110-8.72 4.36 4.36 0 010 8.72z" fill="currentColor"/></svg><svg fill="none" viewBox="0 0 17 17" id="icon-tg" xmlns="http://www.w3.org/2000/svg"><g clip-path="url(#fclip0_420_10382)"><path d="M8.5 0a8.499 8.499 0 100 16.998A8.499 8.499 0 008.5 0z" fill="#fff"/><path d="M3.848 8.41c2.478-1.079 4.13-1.79 4.956-2.134 2.362-.982 2.852-1.153 3.172-1.159a.56.56 0 01.33.1c.084.07.108.163.12.23.01.066.025.217.014.334-.128 1.344-.682 4.606-.963 6.111-.119.637-.354.85-.58.872-.495.045-.87-.326-1.348-.64-.747-.49-1.17-.796-1.896-1.274-.84-.553-.295-.857.183-1.354.125-.13 2.3-2.108 2.342-2.287.005-.023.01-.107-.04-.15-.05-.045-.122-.03-.175-.018-.076.017-1.27.807-3.586 2.37-.34.233-.646.346-.922.34-.303-.006-.887-.171-1.322-.312-.53-.173-.955-.265-.917-.559.018-.153.23-.31.632-.47z" fill="#2AABEE"/></g><defs><clipPath id="fclip0_420_10382"><path fill="#fff" d="M0 0h17v17H0z"/></clipPath></defs></svg><svg fill="none" viewBox="0 0 16 16" id="icon-time" xmlns="http://www.w3.org/2000/svg"><g clip-path="url(#gclip0_291_8119)"><path d="M8 16c-4.411 0-8-3.589-8-8s3.589-8 8-8 8 3.589 8 8-3.589 8-8 8zM8 1.333A6.674 6.674 0 001.333 8 6.674 6.674 0 008 14.667 6.674 6.674 0 0014.667 8 6.674 6.674 0 008 1.333zm1.667 9.554a.666.666 0 00.244-.911L8.667 7.821V4a.666.666 0 10-1.334 0v4c0 .117.031.232.09.333l1.333 2.31a.666.666 0 00.91.244z" fill="#3877F2"/></g><defs><clipPath id="gclip0_291_8119"><path fill="#fff" d="M0 0h16v16H0z"/></clipPath></defs></svg><svg fill="none" viewBox="0 0 16 16" id="icon-whapp" xmlns="http://www.w3.org/2000/svg"><g clip-path="url(#hclip0_420_10374)"><path d="M.342 7.905a7.57 7.57 0 001.026 3.814l-1.09 3.953 4.076-1.06a7.734 7.734 0 003.675.928h.004c4.238 0 7.688-3.422 7.69-7.628a7.552 7.552 0 00-2.25-5.397A7.673 7.673 0 008.033.277C3.792.277.342 3.7.341 7.906" fill="url(#hpaint0_linear_420_10374)"/><path d="M.067 7.902c0 1.392.366 2.752 1.063 3.95L0 15.947l4.223-1.099a8.012 8.012 0 003.807.962h.004c4.39 0 7.964-3.545 7.966-7.902a7.824 7.824 0 00-2.331-5.59A7.948 7.948 0 008.033 0C3.644 0 .07 3.545.067 7.902zm2.515 3.744l-.158-.248a6.513 6.513 0 01-1.012-3.496c.001-3.621 2.972-6.567 6.624-6.567 1.769 0 3.431.684 4.681 1.926a6.503 6.503 0 011.938 4.647c-.002 3.621-2.972 6.568-6.621 6.568H8.03a6.654 6.654 0 01-3.37-.916l-.242-.142-2.506.652.669-2.424z" fill="url(#hpaint1_linear_420_10374)"/><path d="M6.042 4.6c-.149-.33-.306-.336-.448-.341-.116-.005-.249-.005-.381-.005a.734.734 0 00-.53.247c-.183.198-.698.675-.698 1.647s.714 1.911.813 2.043c.1.132 1.377 2.19 3.4 2.981 1.682.658 2.024.527 2.389.494.365-.033 1.178-.477 1.344-.939.166-.46.166-.856.116-.939-.05-.082-.183-.131-.382-.23s-1.177-.577-1.36-.643c-.182-.065-.315-.098-.448.1-.133.197-.514.642-.63.773-.116.132-.232.149-.431.05-.2-.099-.84-.307-1.601-.98A5.956 5.956 0 016.088 7.49c-.117-.197-.013-.304.087-.403.09-.088.199-.23.299-.346.099-.115.132-.197.198-.33.067-.131.034-.246-.016-.345-.05-.099-.437-1.076-.614-1.466z" fill="#fff"/></g><defs><linearGradient id="hpaint0_linear_420_10374" x1="772.568" y1="1539.78" x2="772.568" y2=".277" gradientUnits="userSpaceOnUse"><stop stop-color="#1FAF38"/><stop offset="1" stop-color="#60D669"/></linearGradient><linearGradient id="hpaint1_linear_420_10374" x1="800" y1="1594.71" x2="800" y2="0" gradientUnits="userSpaceOnUse"><stop stop-color="#F9F9F9"/><stop offset="1" stop-color="#fff"/></linearGradient><clipPath id="hclip0_420_10374"><path fill="#fff" d="M0 0h16v16H0z"/></clipPath></defs></svg></svg>