<?xml version="1.0" encoding="utf-8"?><svg viewBox="0 0 55 50" xmlns="http://www.w3.org/2000/svg" xmlns:xlink="http://www.w3.org/1999/xlink"><style>:root>svg{display:none}:root>svg:target{display:block}</style><svg fill="none" viewBox="0 0 16 16" id="icon-arrow-circle-next" xmlns="http://www.w3.org/2000/svg"><path d="M0 8a8 8 0 108-8 8.009 8.009 0 00-8 8zm10.667 0c0 .488-.178.96-.502 1.325a14.68 14.68 0 01-.518.56L7.765 11.8a.666.666 0 11-.951-.933L8.7 8.947c.125-.126.294-.312.467-.506a.667.667 0 000-.882c-.172-.194-.342-.38-.462-.502L6.814 5.133a.666.666 0 11.95-.933l1.887 1.92c.133.133.32.337.512.555.325.365.504.836.504 1.325z" fill="currentColor"/></svg><svg fill="none" viewBox="0 0 16 17" id="icon-arrow-circle-prev" xmlns="http://www.w3.org/2000/svg"><path d="M16 8.5a8 8 0 10-8 8 8.009 8.009 0 008-8zm-10.667 0c0-.488.178-.96.502-1.325.194-.218.382-.424.518-.56L8.235 4.7a.667.667 0 11.951.933L7.3 7.553a13.9 13.9 0 00-.467.506.667.667 0 000 .882c.172.194.342.38.462.502l1.891 1.924a.667.667 0 11-.95.933l-1.887-1.92a14.11 14.11 0 01-.512-.555A1.993 1.993 0 015.333 8.5z" fill="currentColor"/></svg><svg fill="none" viewBox="0 0 11 10" id="icon-arrow-double-next" xmlns="http://www.w3.org/2000/svg"><path d="M.777 1L4.32 4.543a1 1 0 010 1.414L.777 9.5M5.973 1l3.543 3.543a1 1 0 010 1.414L5.973 9.5" stroke="currentColor"/></svg><svg fill="none" viewBox="0 0 44 43" id="icon-arrow-next" xmlns="http://www.w3.org/2000/svg"><path d="M26.878 25.929l-5.186 5.158a.93.93 0 01-1.297.01.88.88 0 01-.01-1.266l5.191-5.163c.343-.337.822-.852 1.31-1.386a2.64 2.64 0 000-3.56 35.517 35.517 0 00-1.315-1.392l-5.187-5.158a.88.88 0 01.011-1.267.926.926 0 01.644-.258c.236 0 .475.09.653.267l5.18 5.153c.364.353.87.896 1.387 1.466a4.406 4.406 0 010 5.936 38.867 38.867 0 01-1.38 1.458v.002z" fill="currentColor"/></svg><svg fill="none" viewBox="0 0 44 43" id="icon-arrow-next-double" xmlns="http://www.w3.org/2000/svg"><path d="M26.878 25.929l-5.186 5.158a.93.93 0 01-1.297.01.88.88 0 01-.01-1.266l5.191-5.163c.343-.337.822-.852 1.31-1.386a2.64 2.64 0 000-3.56 35.517 35.517 0 00-1.315-1.392l-5.187-5.158a.88.88 0 01.011-1.267.926.926 0 01.644-.258c.236 0 .475.09.653.267l5.18 5.153c.364.353.87.896 1.387 1.466a4.406 4.406 0 010 5.936 38.867 38.867 0 01-1.38 1.458v.002z" fill="currentColor"/><path d="M33.757 25.929l-5.186 5.158a.93.93 0 01-1.297.01.88.88 0 01-.01-1.266l5.191-5.163c.343-.337.822-.852 1.31-1.386a2.64 2.64 0 000-3.56 35.517 35.517 0 00-1.315-1.392l-5.187-5.158a.88.88 0 01.011-1.267.926.926 0 01.644-.258c.236 0 .475.09.652.267l5.181 5.153c.364.353.87.896 1.387 1.466a4.406 4.406 0 010 5.936 38.867 38.867 0 01-1.38 1.458l-.001.002z" fill="currentColor"/></svg><svg fill="none" viewBox="0 0 55 24" id="icon-arrow-next-long" xmlns="http://www.w3.org/2000/svg"><g clip-path="url(#afclip0_480_14568)"><path d="M50 12l-6 6m6-6l-6-6m6 6H2" stroke="currentColor" stroke-width="1.5" stroke-linecap="round" stroke-linejoin="round"/></g><defs><clipPath id="afclip0_480_14568"><path fill="#fff" transform="rotate(90 27.5 27.5)" d="M0 0h24v55H0z"/></clipPath></defs></svg><svg fill="none" viewBox="0 0 44 43" id="icon-arrow-prev" xmlns="http://www.w3.org/2000/svg"><path d="M17.122 25.929l5.186 5.158a.93.93 0 001.297.01.88.88 0 00.01-1.266l-5.191-5.163a39.787 39.787 0 01-1.31-1.386 2.64 2.64 0 010-3.56c.488-.537.967-1.051 1.315-1.392l5.187-5.158a.88.88 0 00-.011-1.267.926.926 0 00-.644-.258.924.924 0 00-.653.267l-5.18 5.153a36.31 36.31 0 00-1.387 1.466 4.406 4.406 0 000 5.936c.517.568 1.023 1.11 1.38 1.458v.002z" fill="currentColor"/></svg><svg fill="none" viewBox="0 0 44 43" id="icon-arrow-prev-double" xmlns="http://www.w3.org/2000/svg"><path d="M17.122 25.929l5.186 5.158a.93.93 0 001.297.01.88.88 0 00.01-1.266l-5.191-5.163a39.787 39.787 0 01-1.31-1.386 2.64 2.64 0 010-3.56c.488-.537.967-1.051 1.315-1.392l5.187-5.158a.88.88 0 00-.011-1.267.926.926 0 00-.644-.258.924.924 0 00-.653.267l-5.18 5.153a36.31 36.31 0 00-1.387 1.466 4.406 4.406 0 000 5.936c.517.568 1.023 1.11 1.38 1.458v.002z" fill="currentColor"/><path d="M10.243 25.929l5.187 5.158a.93.93 0 001.296.01.88.88 0 00.01-1.266l-5.191-5.163a39.787 39.787 0 01-1.31-1.386 2.64 2.64 0 010-3.56c.488-.537.967-1.051 1.315-1.392l5.187-5.158a.88.88 0 00-.011-1.267.926.926 0 00-.644-.258.924.924 0 00-.652.267l-5.181 5.153c-.364.353-.87.896-1.387 1.466a4.406 4.406 0 000 5.936c.517.568 1.023 1.11 1.38 1.458l.001.002z" fill="currentColor"/></svg><svg fill="none" viewBox="0 0 15 16" id="icon-arrow-top-bottom" xmlns="http://www.w3.org/2000/svg"><path d="M7.498 14.094a1.25 1.25 0 00.875-.369l2.687-2.68a.625.625 0 10-.887-.882l-2.05 2.056V5.97a.625.625 0 00-1.25 0v6.25l-2.056-2.056a.625.625 0 10-.888.881l2.688 2.681c.233.235.55.368.88.37z" fill="currentColor"/><path d="M7.494 1.906a1.25 1.25 0 00-.875.369L3.932 4.956a.625.625 0 10.887.881l2.05-2.056v6.25a.625.625 0 101.25 0v-6.25l2.056 2.056a.625.625 0 00.888-.881L8.375 2.275a1.25 1.25 0 00-.88-.369z" fill="currentColor"/></svg><svg fill="none" viewBox="0 0 15 15" id="icon-arrow-top-right" xmlns="http://www.w3.org/2000/svg"><path d="M13.438 0H5.625v1.875H11.8L.017 13.658l1.325 1.326L13.125 3.2v6.174H15V1.562C15 .703 14.3 0 13.438 0z" fill="currentColor"/></svg><svg fill="none" viewBox="0 0 20 20" id="icon-bath" xmlns="http://www.w3.org/2000/svg"><g clip-path="url(#akclip0_524_31445)"><path d="M19.374 10.846A2.5 2.5 0 0017.5 10H1.667V3.61c0-1.07.872-1.943 1.944-1.943.608 0 1.19.29 1.556.777l.216.288L4.98 5.04a1.128 1.128 0 001.788 1.096l3.005-2.254a1.128 1.128 0 00.273-1.511l-.011-.018a1.13 1.13 0 00-.9-.518l-2.42-.108-.214-.285A3.628 3.628 0 003.61 0 3.614 3.614 0 000 3.61v7.275c0 .006 0 .01.003.017l.003.03v.005l.286 2.29a6.767 6.767 0 002.196 4.198l-.38 1.542a.833.833 0 101.617.4l.23-.934c.925.47 1.968.734 3.064.734H13.2c1.02 0 1.992-.228 2.867-.638l.207.838a.834.834 0 001.618-.4l-.342-1.384a6.77 6.77 0 002.378-4.355l.052-.417a2.5 2.5 0 00-.607-1.964l.001-.001z" fill="currentColor"/></g><defs><clipPath id="akclip0_524_31445"><path fill="#fff" d="M0 0h20v20H0z"/></clipPath></defs></svg><svg fill="none" viewBox="0 0 12 12" id="icon-blood" xmlns="http://www.w3.org/2000/svg"><g clip-path="url(#alclip0_544_24)"><path d="M2.75 5.245L.805 7.305C.286 7.826 0 8.516 0 9.25c0 .735.286 1.425.805 1.944.52.52 1.21.806 1.945.806a2.75 2.75 0 001.955-4.684L2.75 5.245zm8.514-.517L9.5 3.003 7.732 4.732a2.502 2.502 0 000 3.536C8.204 8.74 8.832 9 9.5 9c.668 0 1.296-.26 1.768-.732a2.504 2.504 0 00-.004-3.54zM5 .203L3.586 1.586C3.208 1.964 3 2.466 3 3c0 .534.208 1.037.586 1.414C3.963 4.792 4.466 5 5 5c.535 0 1.037-.208 1.415-.586.78-.78.78-2.048-.005-2.832L5 .202z" fill="currentColor"/></g><defs><clipPath id="alclip0_544_24"><path fill="#fff" d="M0 0h12v12H0z"/></clipPath></defs></svg><svg fill="none" viewBox="0 0 24 24" id="icon-budget" xmlns="http://www.w3.org/2000/svg"><g clip-path="url(#amclip0_453_627)"><path d="M7.86 13.924c.366-.383.72-.815.994-1.276.431-.727-.14-1.648-.982-1.648H4.131c-.843 0-1.413.921-.982 1.648.273.461.628.894.993 1.276-2.366 1.086-4.14 4.061-4.14 6.587a3.498 3.498 0 003.5 3.488h5c1.93 0 3.5-1.565 3.5-3.488 0-2.527-1.776-5.501-4.141-6.587zM8.5 22h-5c-.826 0-1.499-.667-1.499-1.488 0-2.295 2.168-5.012 4-5.012 1.832 0 4 2.717 4 5.012 0 .821-.673 1.488-1.5 1.488zM21.002 0H6.5a3.504 3.504 0 00-3.499 3.5V8a1 1 0 002 0V3.5C5 2.673 5.674 2 6.5 2S8 2.673 8 3.5C8 4.878 9.123 6 10.5 6h8.5v13c0 1.654-1.346 3-3 3h-2a1 1 0 000 2h2c2.757 0 5-2.243 5-5V6h.5c1.378 0 2.5-1.122 2.5-2.5V3c0-1.654-1.346-3-3-3zm1 3.5a.5.5 0 01-.5.5h-11a.5.5 0 01-.5-.5c0-.537-.122-1.045-.338-1.5H21c.551 0 1 .449 1 1v.5z" fill="#3877F2"/></g><defs><clipPath id="amclip0_453_627"><path fill="#fff" d="M0 0h24v24H0z"/></clipPath></defs></svg><svg fill="none" viewBox="0 0 24 24" id="icon-calc" xmlns="http://www.w3.org/2000/svg"><path fill-rule="evenodd" clip-rule="evenodd" d="M12 22c-4.243 0-6.364 0-7.682-1.465C3 19.072 3 16.714 3 12s0-7.071 1.318-8.536C5.636 2 7.758 2 12 2c4.243 0 6.364 0 7.682 1.464C21 4.93 21 7.286 21 12c0 4.714 0 7.071-1.318 8.535C18.364 22 16.242 22 12 22zm3-16H9c-.465 0-.697 0-.888.051a1.5 1.5 0 00-1.06 1.06C7 7.304 7 7.536 7 8s0 .697.051.888a1.5 1.5 0 001.06 1.06C8.304 10 8.536 10 9 10h6c.465 0 .697 0 .888-.051a1.5 1.5 0 001.06-1.06C17 8.696 17 8.464 17 8s0-.697-.051-.888a1.5 1.5 0 00-1.06-1.06C15.697 6 15.464 6 15 6zm-6 7a1 1 0 11-2 0 1 1 0 012 0zm3 1a1 1 0 100-2 1 1 0 000 2zm5-1a1 1 0 11-2 0 1 1 0 012 0zm-1 5a1 1 0 100-2 1 1 0 000 2zm-3-1a1 1 0 11-2 0 1 1 0 012 0zm-5 1a1 1 0 100-2 1 1 0 000 2z" fill="#fff"/></svg><svg fill="none" viewBox="0 0 38 38" id="icon-calculator" xmlns="http://www.w3.org/2000/svg"><path fill-rule="evenodd" clip-rule="evenodd" d="M19 34.833c-6.718 0-10.076 0-12.163-2.32C4.75 30.198 4.75 26.464 4.75 19c0-7.464 0-11.196 2.087-13.515C8.924 3.167 12.284 3.167 19 3.167c6.718 0 10.076 0 12.163 2.318C33.25 7.805 33.25 11.536 33.25 19s0 11.196-2.087 13.514c-2.087 2.32-5.447 2.32-12.163 2.32zM23.75 9.5h-9.5c-.736 0-1.104 0-1.406.08a2.375 2.375 0 00-1.678 1.68c-.083.305-.083.672-.083 1.407 0 .734 0 1.103.081 1.406a2.374 2.374 0 001.678 1.678c.306.082.673.082 1.408.082h9.5c.736 0 1.104 0 1.406-.08a2.375 2.375 0 001.678-1.679c.083-.305.083-.673.083-1.407 0-.735 0-1.104-.081-1.406a2.375 2.375 0 00-1.678-1.679c-.304-.082-.673-.082-1.408-.082zm-9.5 11.083a1.583 1.583 0 11-3.166 0 1.583 1.583 0 013.166 0zM19 22.167A1.583 1.583 0 1019 19a1.583 1.583 0 000 3.167zm7.917-1.584a1.583 1.583 0 11-3.166 0 1.583 1.583 0 013.166 0zM25.333 28.5a1.583 1.583 0 100-3.167 1.583 1.583 0 000 3.167zm-4.75-1.583a1.584 1.584 0 11-3.167 0 1.584 1.584 0 013.167 0zM12.667 28.5a1.584 1.584 0 100-3.167 1.584 1.584 0 000 3.167z" fill="currentColor"/></svg><svg fill="none" viewBox="0 0 12 13" id="icon-calendar" xmlns="http://www.w3.org/2000/svg"><path d="M9.25 1.5H9v-.25a.75.75 0 00-1.5 0v.25h-3v-.25a.75.75 0 00-1.5 0v.25h-.25A2.75 2.75 0 000 4.25v5.5a2.75 2.75 0 002.75 2.75h6.5A2.75 2.75 0 0012 9.75v-5.5A2.75 2.75 0 009.25 1.5zm0 9.5h-6.5A1.25 1.25 0 011.5 9.75V5.5h9v4.25A1.25 1.25 0 019.25 11z" fill="currentColor"/></svg><svg fill="none" viewBox="0 0 27 27" id="icon-call" xmlns="http://www.w3.org/2000/svg"><path d="M7.447 12.139a16.984 16.984 0 007.414 7.413l2.475-2.474a1.129 1.129 0 011.148-.282c1.26.416 2.61.642 4.016.642a1.125 1.125 0 011.125 1.125V22.5a1.125 1.125 0 01-1.125 1.125A19.125 19.125 0 013.375 4.5 1.125 1.125 0 014.5 3.375h3.938A1.125 1.125 0 019.562 4.5c0 1.406.226 2.756.642 4.016.123.394.034.833-.282 1.148l-2.475 2.475z" fill="currentColor"/></svg><svg fill="none" viewBox="0 0 22 22" id="icon-call-history" xmlns="http://www.w3.org/2000/svg"><path d="M18.936 13.62a2.842 2.842 0 00-3.926.006L13.263 15.1A11.72 11.72 0 016.91 8.732l1.467-1.741a2.842 2.842 0 00.005-3.925S6.684.864 6.656.836A2.824 2.824 0 002.689.792l-1.054.917c-7.076 7.524 11.184 25.793 18.7 18.608l.836-.962a2.841 2.841 0 000-4.012c-.029-.026-2.235-1.724-2.235-1.724zm1.749-2.093C25.26 4.793 17.2-3.253 10.475 1.32a.917.917 0 001.05 1.504c5.015-3.445 11.1 2.642 7.656 7.656a.917.917 0 101.504 1.048zm-3.537-1.71a.917.917 0 000-1.295l-1.565-1.565V4.584a.917.917 0 00-1.833 0v2.75c0 .243.097.476.269.648l1.833 1.833a.917.917 0 001.296 0v.003z" fill="#fff"/></svg><svg fill="none" viewBox="0 0 35 35" id="icon-caret-circle" xmlns="http://www.w3.org/2000/svg"><rect width="35" height="35" rx="17.5" fill="currentColor"/><path d="M11 16l6.5 5 6.5-5" stroke="#fff"/></svg><svg fill="none" viewBox="0 0 35 35" id="icon-caret-circle-white" xmlns="http://www.w3.org/2000/svg"><rect width="35" height="35" rx="17.5" fill="#fff"/><path d="M11 16l6.5 5 6.5-5" stroke="currentColor"/></svg><svg fill="none" viewBox="0 0 32 32" id="icon-chat" xmlns="http://www.w3.org/2000/svg"><g clip-path="url(#auclip0_549_6359)"><path d="M17.333-.005H6.667A6.674 6.674 0 000 6.66V23.8a2.863 2.863 0 002.865 2.865 2.87 2.87 0 001.588-.48l5.284-3.524h7.596A6.674 6.674 0 0024 15.995V6.66a6.674 6.674 0 00-6.667-6.666zm14.667 12v17.138A2.87 2.87 0 0129.135 32a2.862 2.862 0 01-1.587-.48l-5.285-3.525h-7.596c-1.934 0-3.663-.842-4.882-2.16l.759-.507h6.79c5.145 0 9.333-4.188 9.333-9.333V6.66c0-.41-.036-.81-.087-1.208C29.661 6.04 32 8.745 32 11.995z" fill="currentColor"/></g><defs><clipPath id="auclip0_549_6359"><path fill="currentColor" d="M0 0h32v32H0z"/></clipPath></defs></svg><svg fill="none" viewBox="0 0 14 14" id="icon-check-done" xmlns="http://www.w3.org/2000/svg"><path d="M7 0C3.14 0 0 3.14 0 7s3.14 7 7 7 7-3.14 7-7-3.14-7-7-7zm-.053 8.994A1.167 1.167 0 015.3 8.991L3.677 7.42l.813-.838L6.12 8.16l3.388-3.326.819.831-3.38 3.33z" fill="currentColor"/></svg><svg fill="none" viewBox="0 0 35 35" id="icon-circle-check" xmlns="http://www.w3.org/2000/svg"><rect width="35" height="35" rx="17.5" fill="#3877F2"/><path fill-rule="evenodd" clip-rule="evenodd" d="M17.5 26.125a8.625 8.625 0 100-17.25 8.625 8.625 0 000 17.25zm-.222-5.137l4.791-5.75-1.472-1.226-4.12 4.944-2.133-2.133-1.355 1.354 2.875 2.875.742.742.672-.806z" fill="#fff"/></svg><svg fill="none" viewBox="0 0 12 12" id="icon-discount" xmlns="http://www.w3.org/2000/svg"><path d="M12 6c0-.813-.357-1.58-.963-2.062a2.745 2.745 0 00-.795-2.181C9.667 1.183 8.875.892 8.104.98 7.097-.298 4.92-.322 3.938.962 2.32.77.767 2.292.98 3.896-.298 4.903-.323 7.079.962 8.063c-.07.81.22 1.605.795 2.18.575.575 1.369.866 2.139.778 1.007 1.278 3.182 1.302 4.166.018.81.069 1.605-.22 2.18-.796.575-.574.865-1.37.778-2.138.623-.524.98-1.291.98-2.104V6zM4 4.5c.003-.654.997-.654 1 0-.003.654-.997.654-1 0zm1.416 3.278a.5.5 0 01-.832-.555l2-3a.5.5 0 11.832.555l-2 3zM7.5 8c-.654-.003-.654-.997 0-1 .654.003.654.997 0 1z" fill="#fff"/></svg><svg fill="none" viewBox="0 0 12 12" id="icon-ground-water" xmlns="http://www.w3.org/2000/svg"><g clip-path="url(#ayclip0_545_2073)"><path d="M0 8.25v-1.5A2.753 2.753 0 012.75 4h.5a.75.75 0 110 1.5h-.5c-.689 0-1.25.561-1.25 1.25v1.5a.75.75 0 11-1.5 0zM9.25 4h-.5a.75.75 0 100 1.5h.5c.69 0 1.25.561 1.25 1.25v1.5a.75.75 0 101.5 0v-1.5A2.753 2.753 0 009.25 4zm1.623 6.4c-.264.155-.631.117-.901-.074a1.675 1.675 0 00-1.942 0 .925.925 0 01-1.058 0 1.675 1.675 0 00-1.942 0 .925.925 0 01-1.058 0 1.675 1.675 0 00-1.942 0c-.273.194-.635.231-.903.074a.751.751 0 00-.753 1.298c.764.444 1.783.378 2.525-.15a.167.167 0 01.203 0c.82.583 1.975.584 2.797 0a.167.167 0 01.203 0c.82.583 1.975.584 2.797 0a.167.167 0 01.203 0c.41.292.907.452 1.398.452.397 0 .787-.104 1.128-.303a.75.75 0 00-.755-1.296zM4.225 2.5h1.026v5.75a.75.75 0 101.5 0V2.5h1.026c.36 0 .54-.435.285-.69L6.43.179a.606.606 0 00-.857 0L3.939 1.81a.404.404 0 00.286.69z" fill="currentColor"/></g><defs><clipPath id="ayclip0_545_2073"><path fill="#fff" d="M0 0h12v12H0z"/></clipPath></defs></svg><svg fill="none" viewBox="0 0 21 21" id="icon-hamburger" xmlns="http://www.w3.org/2000/svg"><g clip-path="url(#azclip0_367_2766)" fill="#424242"><path d="M18.938 9.295H2.063a1.205 1.205 0 100 2.41h16.875a1.205 1.205 0 000-2.41zM2.063 6.08h16.875a1.205 1.205 0 000-2.41H2.063a1.205 1.205 0 000 2.41zM18.938 14.92H2.063a1.205 1.205 0 100 2.41h16.875a1.205 1.205 0 000-2.41z"/></g><defs><clipPath id="azclip0_367_2766"><path fill="#fff" transform="translate(.857 .857)" d="M0 0h19.286v19.286H0z"/></clipPath></defs></svg><svg fill="none" viewBox="0 0 15 15" id="icon-home" xmlns="http://www.w3.org/2000/svg"><g clip-path="url(#baclip0_544_22)"><path d="M13.75 3.578V1.25a.625.625 0 10-1.25 0v1.479L9.248.534a3.113 3.113 0 00-3.496 0L1.377 3.487A3.122 3.122 0 000 6.077v5.798A3.129 3.129 0 003.125 15h1.25c.346 0 .625-.28.625-.625V8.75c0-.344.28-.625.625-.625h3.75c.345 0 .625.28.625.625v5.625c0 .345.28.625.625.625h1.25A3.129 3.129 0 0015 11.875V6.078c0-.989-.465-1.912-1.25-2.5z" fill="currentColor"/></g><defs><clipPath id="baclip0_544_22"><path fill="#fff" d="M0 0h15v15H0z"/></clipPath></defs></svg><svg fill="none" viewBox="0 0 16 20" id="icon-hot" xmlns="http://www.w3.org/2000/svg"><path d="M14.483 8.699a7.466 7.466 0 00-1.781-2.475l-.626-.574a.174.174 0 00-.279.071l-.28.802c-.173.502-.493 1.016-.947 1.52a.134.134 0 01-.088.044.119.119 0 01-.092-.033.126.126 0 01-.043-.103c.08-1.293-.307-2.752-1.154-4.34-.7-1.319-1.673-2.348-2.89-3.065L5.417.024a.172.172 0 00-.258.156l.048 1.032c.032.704-.05 1.327-.243 1.845a6.127 6.127 0 01-1.01 1.751 6.35 6.35 0 01-1.02.99A7.575 7.575 0 00.778 8.41a7.471 7.471 0 00-.183 6.237 7.549 7.549 0 004.026 3.988 7.56 7.56 0 002.941.588c1.021 0 2.01-.198 2.942-.587a7.49 7.49 0 002.404-1.604 7.438 7.438 0 002.217-5.305 7.394 7.394 0 00-.642-3.027z" fill="url(#bbpaint0_linear_545_2630)"/><defs><linearGradient id="bbpaint0_linear_545_2630" x1="7.563" y1="0" x2="7.563" y2="19.222" gradientUnits="userSpaceOnUse"><stop stop-color="#FF993C"/><stop offset="1" stop-color="#E95D5D"/></linearGradient></defs></svg><svg fill="none" viewBox="0 0 17 17" id="icon-info-circle" xmlns="http://www.w3.org/2000/svg"><path d="M7.791 12.041h1.417v-4.25H7.79v4.25zm.708-5.667c.201 0 .37-.068.505-.204a.683.683 0 00.204-.504c0-.2-.069-.368-.204-.504a.684.684 0 00-.505-.204c-.2 0-.368.068-.504.204a.689.689 0 00-.204.504c0 .2.068.369.204.505a.68.68 0 00.504.203zm0 9.209c-.98 0-1.9-.186-2.762-.559a7.164 7.164 0 01-2.25-1.513 7.137 7.137 0 01-1.513-2.25A6.913 6.913 0 011.416 8.5c0-.979.186-1.9.558-2.762a7.17 7.17 0 011.514-2.25 7.143 7.143 0 012.249-1.513 6.9 6.9 0 012.762-.558 6.9 6.9 0 012.763.558 7.142 7.142 0 012.249 1.514 7.177 7.177 0 011.514 2.249c.373.862.56 1.783.558 2.762-.002.98-.188 1.9-.559 2.763a7.105 7.105 0 01-1.513 2.249 7.196 7.196 0 01-2.25 1.514 6.863 6.863 0 01-2.762.558zm0-1.417c1.582 0 2.922-.549 4.02-1.647 1.098-1.098 1.647-2.438 1.647-4.02 0-1.582-.549-2.922-1.647-4.02-1.098-1.097-2.438-1.646-4.02-1.646-1.582 0-2.922.549-4.02 1.647C3.383 5.577 2.834 6.917 2.834 8.5c0 1.581.549 2.921 1.647 4.02 1.097 1.097 2.437 1.646 4.02 1.646z" fill="currentColor"/></svg><svg fill="none" viewBox="0 0 16 16" id="icon-info-circle-fill" xmlns="http://www.w3.org/2000/svg"><path d="M7.999 1.333A6.67 6.67 0 001.332 8a6.67 6.67 0 006.667 6.667A6.67 6.67 0 0014.665 8 6.67 6.67 0 008 1.333zm0 10a.669.669 0 01-.667-.666V8c0-.367.3-.667.667-.667.366 0 .666.3.666.667v2.667c0 .366-.3.666-.666.666zM8.665 6H7.332V4.667h1.333V6z" fill="currentColor"/></svg><svg fill="none" viewBox="0 0 12 12" id="icon-location" xmlns="http://www.w3.org/2000/svg"><path d="M6.797 11.999c-.114 0-.227-.01-.337-.03-.733-.134-1.473-.732-1.473-1.767V7.005h-3.19C.762 7.005.164 6.265.03 5.531c-.133-.733.166-1.636 1.134-2.001L9.361.133A1.922 1.922 0 0111.43.57c.546.545.715 1.332.443 2.053L8.457 10.85C8.152 11.661 7.451 12 6.797 12z" fill="currentColor"/></svg><svg fill="none" viewBox="0 0 24 24" id="icon-memo-circle-check" xmlns="http://www.w3.org/2000/svg"><g clip-path="url(#bfclip0_453_631)"><path d="M10 23a1 1 0 01-1 1H5c-2.757 0-5-2.243-5-5V5c0-2.757 2.243-5 5-5h8c2.757 0 5 2.243 5 5v2a1 1 0 11-2 0V5c0-1.654-1.346-3-3-3H5C3.346 2 2 3.346 2 5v14c0 1.654 1.346 3 3 3h4a1 1 0 011 1zm4-17a1 1 0 00-1-1H5a1 1 0 100 2h8a1 1 0 001-1zm-4 5a1 1 0 00-1-1H5a1 1 0 100 2h4a1 1 0 001-1zm-5 4a1 1 0 100 2h2a1 1 0 100-2H5zm19 2c0 3.859-3.141 7-7 7s-7-3.141-7-7 3.141-7 7-7 7 3.141 7 7zm-2 0c0-2.757-2.243-5-5-5s-5 2.243-5 5 2.243 5 5 5 5-2.243 5-5zm-3.192-1.241l-2.223 2.134a.374.374 0 01-.522.002l-1.131-1.108a.999.999 0 10-1.4 1.428l1.132 1.109c.46.449 1.062.674 1.663.674s1.201-.225 1.653-.671l2.213-2.124a1 1 0 00-1.385-1.443v-.001z" fill="#3877F2"/></g><defs><clipPath id="bfclip0_453_631"><path fill="#fff" d="M0 0h24v24H0z"/></clipPath></defs></svg><svg fill="none" viewBox="0 0 36 36" id="icon-pdf" xmlns="http://www.w3.org/2000/svg"><g clip-path="url(#bgclip0_193_4422)"><path d="M11.97 24.165c0 .705-.615 1.29-1.335 1.29H9.39v-2.58h1.26c.72 0 1.335.585 1.335 1.29h-.015zM22.5 12h9.81a10.555 10.555 0 00-2.385-3.69l-5.22-5.235A10.555 10.555 0 0021.015.69v9.81c0 .825.675 1.5 1.5 1.5H22.5zm-4.365 10.875h-1.26v5.25h1.26c.72 0 1.335-.585 1.335-1.29v-2.67c0-.705-.615-1.29-1.335-1.29zM33 15.735V28.5c0 4.14-3.36 7.5-7.5 7.5h-15C6.36 36 3 32.64 3 28.5v-21C3 3.36 6.36 0 10.5 0h6.765c.24 0 .48.015.735.03V10.5c0 2.475 2.025 4.5 4.5 4.5h10.47c.015.24.03.48.03.735zm-19.155 8.43c0-1.74-1.44-3.165-3.21-3.165H9c-.825 0-1.5.675-1.5 1.5v6.66c0 .525.42.93.93.93s.93-.42.93-.93v-1.83h1.26c1.77 0 3.21-1.425 3.21-3.165h.015zm7.5 0c0-1.74-1.44-3.165-3.21-3.165H16.5c-.825 0-1.5.675-1.5 1.5v6.66c0 .525.42.84.93.84h2.19c1.77 0 3.21-1.425 3.21-3.165v-2.67h.015zm7.185-2.22c0-.525-.42-.93-.93-.93h-3.465c-.525 0-.93.42-.93.93v7.215c0 .525.42.93.93.93s.93-.42.93-.93v-2.7h1.86c.525 0 .93-.42.93-.93s-.42-.93-.93-.93h-1.86v-1.71H27.6c.525 0 .93-.42.93-.93v-.015z" fill="#3877F2"/></g><defs><clipPath id="bgclip0_193_4422"><path fill="#fff" d="M0 0h36v36H0z"/></clipPath></defs></svg><svg fill="none" viewBox="0 0 32 32" id="icon-phone-call" xmlns="http://www.w3.org/2000/svg"><g clip-path="url(#bhclip0_549_6355)"><path d="M30.667 14.667a1.333 1.333 0 01-1.333-1.334A10.677 10.677 0 0018.667 2.667a1.333 1.333 0 110-2.667A13.348 13.348 0 0132 13.333a1.334 1.334 0 01-1.333 1.334zm-4-1.334a8 8 0 00-8-8 1.333 1.333 0 100 2.667A5.333 5.333 0 0124 13.333a1.334 1.334 0 002.667 0zm2.91 16.219l1.214-1.399a4.134 4.134 0 000-5.836c-.041-.041-3.25-2.509-3.25-2.509a4.133 4.133 0 00-5.707.008l-2.542 2.141A17.049 17.049 0 0110.05 12.7l2.133-2.534a4.134 4.134 0 00.01-5.709S9.721 1.252 9.68 1.211a4.11 4.11 0 00-5.768-.062L2.38 2.483C-6.68 12.992 12.827 32.348 23.683 32a8.206 8.206 0 005.895-2.448z" fill="currentColor"/></g><defs><clipPath id="bhclip0_549_6355"><path fill="currentColor" d="M0 0h32v32H0z"/></clipPath></defs></svg><svg fill="none" viewBox="0 0 50 50" id="icon-play" xmlns="http://www.w3.org/2000/svg"><path d="M19.94 7.027a4.583 4.583 0 00-6.828 3.993V38.52a4.584 4.584 0 006.829 3.996l24.442-13.75a4.583 4.583 0 000-7.989L19.941 7.026z" fill="#fff"/></svg><svg fill="none" viewBox="0 0 14 14" id="icon-search" xmlns="http://www.w3.org/2000/svg"><path d="M13.744 12.51l-2.71-2.711A6.127 6.127 0 109.8 11.034l2.71 2.71a.872.872 0 101.234-1.233v-.001zm-7.593-2a4.36 4.36 0 110-8.72 4.36 4.36 0 010 8.72z" fill="currentColor"/></svg><svg fill="none" viewBox="0 0 17 17" id="icon-search-thin" xmlns="http://www.w3.org/2000/svg"><path d="M7.71 2.386a5.171 5.171 0 11-5.167 5.17 5.194 5.194 0 015.166-5.17zm0-.968a6.139 6.139 0 100 12.278 6.139 6.139 0 000-12.278zM16.526 15.72l-3.48-3.503-.671.666 3.48 3.504a.474.474 0 00.771-.151.472.472 0 00-.1-.515z" fill="currentColor"/></svg><svg fill="none" viewBox="0 0 12 13" id="icon-settings" xmlns="http://www.w3.org/2000/svg"><path d="M.804 9.5a1.5 1.5 0 002.048.55h.002l.222-.129c.42.36.903.639 1.424.822V11a1.5 1.5 0 003 0v-.257a4.489 4.489 0 001.424-.823l.224.13a1.5 1.5 0 101.5-2.6l-.222-.129c.1-.543.1-1.1 0-1.645l.222-.128a1.5 1.5 0 10-1.5-2.6l-.223.129a4.489 4.489 0 00-1.425-.82V2a1.5 1.5 0 00-3 0v.256a4.488 4.488 0 00-1.424.824l-.223-.13a1.5 1.5 0 10-1.5 2.6l.222.128a4.55 4.55 0 000 1.645l-.222.128A1.503 1.503 0 00.803 9.5zM6 4.5a2 2 0 110 4 2 2 0 010-4z" fill="currentColor"/></svg><svg fill="none" viewBox="0 0 12 13" id="icon-shield" xmlns="http://www.w3.org/2000/svg"><path d="M9.29 1.57L6.159.525a.5.5 0 00-.316 0L2.71 1.57A2.497 2.497 0 001 3.942V6.5c0 3.781 4.6 5.87 4.797 5.957a.5.5 0 00.406 0C6.4 12.37 11 10.281 11 6.5V3.942A2.496 2.496 0 009.29 1.57zM8.36 5.358L6.223 7.495a.936.936 0 01-.667.276h-.017a.936.936 0 01-.672-.3l-1.154-1.2a.5.5 0 11.721-.691l1.122 1.17 2.094-2.1a.5.5 0 01.707.707l.002.002z" fill="currentColor"/></svg><svg fill="none" viewBox="0 0 24 24" id="icon-shipping" xmlns="http://www.w3.org/2000/svg"><path d="M19 5h-2.077a4.995 4.995 0 00-3.674-3.968.999.999 0 10-.498 1.936A2.999 2.999 0 0115 5.874V17H4c-1.103 0-2-.897-2-2v-4h2.5a1 1 0 100-2H2c-1.103 0-2 .897-2 2v4a4.007 4.007 0 003.055 3.887A3.504 3.504 0 006.5 23a3.504 3.504 0 003.463-4h4.074a3.504 3.504 0 003.463 4 3.504 3.504 0 003.445-4.113A4.007 4.007 0 0024 15v-5c0-2.757-2.243-5-5-5zm3 5v1h-5V7h2c1.654 0 3 1.346 3 3zM8 19.5c0 .827-.673 1.5-1.5 1.5S5 20.327 5 19.5c0-.189.037-.356.091-.5H7.91c.054.144.091.311.091.5H8zm9.5 1.5c-.827 0-1.5-.673-1.5-1.5 0-.189.037-.356.091-.5h2.819c.054.144.091.311.091.5 0 .827-.674 1.5-1.501 1.5zm2.5-4h-3v-4h5v2c0 1.103-.897 2-2 2zM0 2a1 1 0 011-1h8.154a1 1 0 110 2H1a1 1 0 01-1-1zm0 4a1 1 0 011-1h6.154a1 1 0 110 2H1a1 1 0 01-1-1z" fill="#3877F2"/></svg><svg fill="none" viewBox="0 0 20 20" id="icon-shower" xmlns="http://www.w3.org/2000/svg"><g clip-path="url(#boclip0_524_31447)"><path d="M15.834 10.417a1.25 1.25 0 11-2.5-.001 1.25 1.25 0 012.5 0zM18.751 7.5A1.25 1.25 0 1018.75 5a1.25 1.25 0 000 2.5zm-4.167 5.833a1.25 1.25 0 10.001 2.501 1.25 1.25 0 000-2.5zm4.167-4.166a1.25 1.25 0 100 2.5 1.25 1.25 0 000-2.5zm0 4.166a1.25 1.25 0 100 2.501 1.25 1.25 0 000-2.5zm0 4.167a1.25 1.25 0 100 2.5 1.25 1.25 0 000-2.5zm-4.167 0a1.25 1.25 0 10.001 2.5 1.25 1.25 0 000-2.5zm-4.166-4.167a1.25 1.25 0 100 2.501 1.25 1.25 0 000-2.5zm0 4.167a1.25 1.25 0 100 2.5 1.25 1.25 0 000-2.5zm6.179-15.33a2.539 2.539 0 01-.677 2.403L9.572 10.92a2.533 2.533 0 01-2.401.676 2.5 2.5 0 01-1.81-1.662 6.355 6.355 0 01-.293-1.489c-.2-2.687.038-4.696.694-6.013a4.407 4.407 0 00-2.498-.764 1.6 1.6 0 00-1.597 1.597v15.902a.833.833 0 11-1.667 0V3.264C0 1.464 1.465 0 3.265 0c1.71 0 2.94.7 3.55 1.14C8.078.197 10.298-.169 13.446.066a6.262 6.262 0 011.49.294 2.5 2.5 0 011.662 1.809z" fill="currentColor"/></g><defs><clipPath id="boclip0_524_31447"><path fill="#fff" d="M0 0h20v20H0z"/></clipPath></defs></svg><svg fill="none" viewBox="0 0 20 20" id="icon-sink" xmlns="http://www.w3.org/2000/svg"><g clip-path="url(#bpclip0_524_31449)"><path d="M17.292 10.833h-.625V10A.833.833 0 1015 10v.833h-4.167V3.75c0-1.148.934-2.083 2.084-2.083 1.157 0 2.011.708 2.078 1.721.03.46.456.802.886.777a.834.834 0 00.777-.887C16.533 1.378 14.96 0 12.917 0a3.755 3.755 0 00-3.75 3.75v7.083H5V10a.833.833 0 10-1.667 0v.833h-.625A2.711 2.711 0 000 13.542 6.466 6.466 0 006.458 20h7.084A6.466 6.466 0 0020 13.542a2.711 2.711 0 00-2.708-2.709z" fill="currentColor"/></g><defs><clipPath id="bpclip0_524_31449"><path fill="#fff" d="M0 0h20v20H0z"/></clipPath></defs></svg><svg fill="none" viewBox="0 0 20 20" id="icon-square-check" xmlns="http://www.w3.org/2000/svg"><path d="M2.5 4.167A1.667 1.667 0 014.167 2.5h11.666A1.666 1.666 0 0117.5 4.167v11.666a1.666 1.666 0 01-1.667 1.667H4.167A1.667 1.667 0 012.5 15.833V4.167z" stroke="#34A844" stroke-width="1.667" stroke-linecap="round" stroke-linejoin="round"/><path d="M7.5 9.999l1.667 1.666L12.5 8.332" stroke="#34A844" stroke-width="1.667" stroke-linecap="round" stroke-linejoin="round"/></svg><svg fill="none" viewBox="0 0 14 14" id="icon-star" xmlns="http://www.w3.org/2000/svg"><path d="M12.813 6.28l-2.46 2.124.749 3.175a.897.897 0 01-1.34.975L7 10.854l-2.763 1.7a.898.898 0 01-1.338-.975l.752-3.175-2.46-2.124a.9.9 0 01.51-1.578l3.226-.26L6.17 1.43a.895.895 0 011.656 0L9.07 4.442l3.226.26a.9.9 0 01.513 1.579h.003z" fill="#FFC239"/></svg><svg fill="none" viewBox="0 0 10 11" id="icon-star-decor" xmlns="http://www.w3.org/2000/svg"><path d="M.553 5.668L2.037 6.75l-.564 1.744a1.324 1.324 0 00.494 1.506 1.324 1.324 0 001.583-.008L5 8.925l1.451 1.067a1.344 1.344 0 002.076-1.497l-.563-1.744 1.483-1.083a1.345 1.345 0 00-.791-2.43H6.834L6.28 1.514a1.345 1.345 0 00-2.561 0l-.553 1.724h-1.82a1.345 1.345 0 00-.792 2.43H.553z" fill="#fff"/></svg><svg fill="none" viewBox="0 0 23 22" id="icon-techinal-support" xmlns="http://www.w3.org/2000/svg"><path d="M14.25 5.5c0-3.033-2.467-5.5-5.5-5.5a5.506 5.506 0 00-5.5 5.5c0 3.033 2.466 5.5 5.5 5.5 3.033 0 5.5-2.467 5.5-5.5zm-5.5 2.75A2.753 2.753 0 016 5.5a2.753 2.753 0 012.75-2.75A2.753 2.753 0 0111.5 5.5a2.753 2.753 0 01-2.75 2.75zm-.011 5.788c.094.753-.44 1.44-1.195 1.534-2.408.301-4.295 2.52-4.295 5.053a1.374 1.374 0 11-2.75 0c0-3.895 2.945-7.312 6.704-7.78.75-.098 1.44.44 1.535 1.194v-.001zm12.844 2.918l-.585-.344c.077-.332.127-.674.127-1.03 0-.355-.05-.696-.127-1.029l.585-.345a1.374 1.374 0 10-1.396-2.37l-.594.35a4.564 4.564 0 00-1.678-.955v-.692a1.374 1.374 0 10-2.75 0v.692c-.628.2-1.198.524-1.677.956l-.594-.35a1.375 1.375 0 00-1.396 2.37l.585.344a4.534 4.534 0 00-.127 1.03c0 .355.05.696.127 1.029l-.585.345a1.374 1.374 0 101.396 2.37l.594-.351c.48.432 1.049.756 1.677.956v.692a1.374 1.374 0 102.75 0v-.692a4.56 4.56 0 001.678-.956l.594.35a1.374 1.374 0 101.396-2.37zm-5.042.001a1.377 1.377 0 01-1.375-1.375c0-.758.617-1.375 1.375-1.375s1.375.617 1.375 1.375-.617 1.375-1.375 1.375z" fill="currentColor"/></svg><svg fill="none" viewBox="0 0 17 17" id="icon-tg" xmlns="http://www.w3.org/2000/svg"><g clip-path="url(#buclip0_420_10382)"><path d="M8.5 0a8.499 8.499 0 100 16.998A8.499 8.499 0 008.5 0z" fill="#fff"/><path d="M3.848 8.41c2.478-1.079 4.13-1.79 4.956-2.134 2.362-.982 2.852-1.153 3.172-1.159a.56.56 0 01.33.1c.084.07.108.163.12.23.01.066.025.217.014.334-.128 1.344-.682 4.606-.963 6.111-.119.637-.354.85-.58.872-.495.045-.87-.326-1.348-.64-.747-.49-1.17-.796-1.896-1.274-.84-.553-.295-.857.183-1.354.125-.13 2.3-2.108 2.342-2.287.005-.023.01-.107-.04-.15-.05-.045-.122-.03-.175-.018-.076.017-1.27.807-3.586 2.37-.34.233-.646.346-.922.34-.303-.006-.887-.171-1.322-.312-.53-.173-.955-.265-.917-.559.018-.153.23-.31.632-.47z" fill="#2AABEE"/></g><defs><clipPath id="buclip0_420_10382"><path fill="#fff" d="M0 0h17v17H0z"/></clipPath></defs></svg><svg fill="none" viewBox="0 0 16 16" id="icon-time" xmlns="http://www.w3.org/2000/svg"><path d="M8 16c-4.411 0-8-3.589-8-8s3.589-8 8-8 8 3.589 8 8-3.589 8-8 8zM8 1.333A6.674 6.674 0 001.333 8 6.674 6.674 0 008 14.667 6.674 6.674 0 0014.667 8 6.674 6.674 0 008 1.333zm1.667 9.554a.666.666 0 00.244-.911L8.667 7.821V4a.666.666 0 10-1.334 0v4c0 .117.031.232.09.333l1.333 2.31a.666.666 0 00.91.244z" fill="currentColor"/></svg><svg fill="none" viewBox="0 0 20 20" id="icon-toilet" xmlns="http://www.w3.org/2000/svg"><path d="M15.833 8.157V5h.417a1.25 1.25 0 000-2.5h-.647c-.517-1.452-1.892-2.5-3.52-2.5H7.917a3.755 3.755 0 00-3.75 3.75v4.407C3.183 8.812 2.5 9.793 2.5 10.833c0 .433.136.93.233 1.149.622 1.674 2.526 3.755 5.974 4.181-.215 1.32-1.624 1.337-1.624 1.337a1.25 1.25 0 000 2.5h5.834a1.25 1.25 0 000-2.5s-1.41-.017-1.624-1.337c3.448-.426 5.352-2.507 5.974-4.181.097-.22.233-.849.233-1.295 0-.857-.682-1.874-1.667-2.53zM6.667 3.75c0-.69.56-1.25 1.25-1.25h4.166c.69 0 1.25.56 1.25 1.25V7.5H6.667V3.75zm8.329 7.112c-.04.16-.48.805-4.996.805-4.258 0-4.918-.536-4.996-.804.044-.163.354-.623 1.023-.863h7.946c.653.234.968.682 1.024.855l-.001.007z" fill="currentColor"/></svg><svg fill="none" viewBox="0 0 12 13" id="icon-user" xmlns="http://www.w3.org/2000/svg"><path d="M6 6.5a3 3 0 100-6 3 3 0 000 6zM6 7.5A4.505 4.505 0 001.5 12a.5.5 0 00.5.5h8a.5.5 0 00.5-.5A4.505 4.505 0 006 7.5z" fill="currentColor"/></svg><svg fill="none" viewBox="0 0 20 20" id="icon-user-box" xmlns="http://www.w3.org/2000/svg"><path d="M5 14.167c0-1.667 3.333-2.584 5-2.584 1.667 0 5 .917 5 2.584V15H5m7.5-7.5a2.5 2.5 0 11-5 0 2.5 2.5 0 015 0zm-10-3.333v11.666A1.666 1.666 0 004.167 17.5h11.666a1.666 1.666 0 001.667-1.667V4.167A1.667 1.667 0 0015.833 2.5H4.167A1.667 1.667 0 002.5 4.167z" fill="currentColor"/></svg><svg fill="none" viewBox="0 0 17 18" id="icon-user-circle" xmlns="http://www.w3.org/2000/svg"><path d="M12.75 9.753a1.821 1.821 0 011.821 1.822v.434c0 2.172-2.556 3.816-6.071 3.816-3.515 0-6.072-1.559-6.072-3.816v-.434A1.821 1.821 0 014.25 9.753h8.5zm-4.25-8.5a3.643 3.643 0 110 7.286 3.643 3.643 0 010-7.286z" fill="currentColor"/></svg><svg fill="none" viewBox="0 0 15 15" id="icon-users" xmlns="http://www.w3.org/2000/svg"><g clip-path="url(#caclip0_544_18)"><path d="M4.688 8.125a2.812 2.812 0 110-5.625 2.812 2.812 0 010 5.625zM9.375 12.5A3.129 3.129 0 006.25 9.375H3.125A3.129 3.129 0 000 12.5V15h9.375v-2.5zm1.563-6.875a2.812 2.812 0 110-5.625 2.812 2.812 0 010 5.625zm.937 1.25H8.75c-.11.005-.219.016-.328.033a4.071 4.071 0 01-.985 1.385 4.38 4.38 0 013.188 4.207H15V10a3.129 3.129 0 00-3.125-3.125z" fill="currentColor"/></g><defs><clipPath id="caclip0_544_18"><path fill="#fff" d="M0 0h15v15H0z"/></clipPath></defs></svg><svg fill="none" viewBox="0 0 16 16" id="icon-vk" xmlns="http://www.w3.org/2000/svg"><g clip-path="url(#cbclip0_291_8024)"><path fill-rule="evenodd" clip-rule="evenodd" d="M15.633 3.966c.111-.364 0-.632-.53-.632h-1.75c-.445 0-.65.231-.762.487 0 0-.89 2.13-2.15 3.514-.408.402-.594.529-.816.529-.112 0-.279-.127-.279-.492V3.966c0-.437-.123-.632-.493-.632H6.1c-.278 0-.446.203-.446.395 0 .414.631.51.696 1.676v2.532c0 .555-.102.656-.325.656-.593 0-2.037-2.141-2.893-4.59-.166-.477-.334-.669-.782-.669H.6c-.5 0-.6.231-.6.487 0 .454.593 2.713 2.763 5.7 1.447 2.04 3.484 3.146 5.339 3.146 1.113 0 1.25-.245 1.25-.668v-1.542c0-.492.105-.59.458-.59.26 0 .705.128 1.743 1.112 1.187 1.166 1.382 1.688 2.05 1.688h1.75c.5 0 .751-.245.607-.73-.159-.483-.725-1.184-1.477-2.015-.408-.473-1.02-.983-1.206-1.239-.259-.327-.185-.473 0-.764 0 0 2.134-2.951 2.356-3.953" fill="#fff"/></g><defs><clipPath id="cbclip0_291_8024"><path fill="#fff" d="M0 0h16v16H0z"/></clipPath></defs></svg><svg fill="none" viewBox="0 0 26 26" id="icon-warning" xmlns="http://www.w3.org/2000/svg"><path d="M25.003 16.608L16.25 2.785A3.972 3.972 0 0013 1.084c-1.29 0-2.514.628-3.283 1.733l-8.71 13.77c-1.105 1.581-1.31 3.477-.541 4.94.758 1.462 2.35 2.296 4.344 2.296h16.38c2.004 0 3.586-.834 4.344-2.297.758-1.462.553-3.347-.53-4.918zM11.916 7.584c0-.596.488-1.083 1.084-1.083.596 0 1.083.487 1.083 1.083v6.5c0 .596-.487 1.083-1.083 1.083a1.087 1.087 0 01-1.084-1.083v-6.5zm1.084 13c-.9 0-1.625-.726-1.625-1.625 0-.9.726-1.625 1.625-1.625s1.625.726 1.625 1.625c0 .9-.726 1.625-1.625 1.625z" fill="currentColor"/></svg><svg fill="none" viewBox="0 0 20 20" id="icon-washer" xmlns="http://www.w3.org/2000/svg"><path d="M7.094 10.903A3.322 3.322 0 0110 9.167c1.717 0 3.118 1.309 3.298 2.978-.229.16-.59.355-1.024.355-.7 0-1.524-.486-1.78-.672-.14-.102-1.396-.995-2.766-.995-.226 0-.435.03-.635.07zm11.24-6.736v11.666A4.171 4.171 0 0114.169 20H5.835a4.171 4.171 0 01-4.167-4.167V4.167A4.171 4.171 0 015.835 0h8.333a4.171 4.171 0 014.167 4.167zm-10-.417a1.25 1.25 0 102.502 0 1.25 1.25 0 00-2.501 0zM5.419 5a1.25 1.25 0 100-2.5 1.25 1.25 0 000 2.5zm9.583 7.5c0-2.758-2.242-5-5-5-2.757 0-5 2.242-5 5s2.243 5 5 5c2.758 0 5-2.242 5-5zm-2.726 1.667c-1.371 0-2.627-.893-2.766-.995-.257-.186-1.081-.672-1.78-.672-.434 0-.797.193-1.024.355.18 1.67 1.58 2.978 3.297 2.978a3.32 3.32 0 002.908-1.736c-.2.04-.41.07-.635.07z" fill="currentColor"/></svg><svg fill="none" viewBox="0 0 16 16" id="icon-whapp" xmlns="http://www.w3.org/2000/svg"><path d="M.067 7.902c0 1.392.366 2.752 1.063 3.95L0 15.947l4.223-1.099a8.012 8.012 0 003.807.962h.004c4.39 0 7.964-3.545 7.966-7.902a7.824 7.824 0 00-2.331-5.59A7.948 7.948 0 008.033 0C3.644 0 .07 3.545.067 7.902zm2.515 3.744l-.158-.248a6.513 6.513 0 01-1.012-3.496c.001-3.621 2.972-6.567 6.624-6.567 1.769 0 3.431.684 4.681 1.926a6.503 6.503 0 011.938 4.647c-.002 3.621-2.972 6.568-6.621 6.568H8.03a6.654 6.654 0 01-3.37-.916l-.242-.142-2.506.652.669-2.424z" fill="#fff"/><path d="M6.042 4.6c-.149-.33-.306-.336-.448-.341-.116-.005-.249-.005-.381-.005a.734.734 0 00-.53.247c-.183.198-.698.675-.698 1.647s.714 1.911.813 2.043c.1.132 1.377 2.19 3.4 2.981 1.682.658 2.024.527 2.389.494.365-.033 1.178-.477 1.344-.939.166-.46.166-.856.116-.939-.05-.082-.183-.131-.382-.23s-1.177-.577-1.36-.643c-.182-.065-.315-.098-.448.1-.133.197-.514.642-.63.773-.116.132-.232.149-.431.05-.2-.099-.84-.307-1.601-.98A5.956 5.956 0 016.088 7.49c-.117-.197-.013-.304.087-.403.09-.088.199-.23.299-.346.099-.115.132-.197.198-.33.067-.131.034-.246-.016-.345-.05-.099-.437-1.076-.614-1.466z" fill="#fff"/></svg><svg fill="none" viewBox="0 0 18 18" id="icon-yt" xmlns="http://www.w3.org/2000/svg"><g clip-path="url(#cfclip0_291_8028)"><path fill-rule="evenodd" clip-rule="evenodd" d="M9 3c.641 0 1.299.017 1.937.043l.753.036.72.043.675.046.617.048a2.851 2.851 0 012.62 2.567l.03.319.056.683c.053.707.092 1.478.092 2.215 0 .737-.039 1.508-.091 2.216l-.057.682-.03.319a2.852 2.852 0 01-2.621 2.567l-.615.047-.675.047-.721.043-.753.036c-.646.027-1.291.042-1.937.043a46.314 46.314 0 01-1.936-.043l-.753-.037-.721-.042-.675-.047-.617-.047a2.851 2.851 0 01-2.62-2.567l-.03-.319-.056-.682A30.492 30.492 0 011.5 9c0-.737.039-1.508.091-2.215l.057-.683.03-.319a2.851 2.851 0 012.62-2.567l.615-.048.675-.046.722-.042.753-.037A46.247 46.247 0 019 3zM7.5 7.181v3.638a.45.45 0 00.675.39l3.15-1.819a.45.45 0 000-.78l-3.15-1.818a.45.45 0 00-.675.39z" fill="#fff"/></g><defs><clipPath id="cfclip0_291_8028"><path fill="#fff" d="M0 0h18v18H0z"/></clipPath></defs></svg></svg>