<?xml version="1.0" encoding="utf-8"?><svg viewBox="0 0 50 50" xmlns="http://www.w3.org/2000/svg" xmlns:xlink="http://www.w3.org/1999/xlink"><style>:root>svg{display:none}:root>svg:target{display:block}</style><svg fill="none" viewBox="0 0 16 16" id="icon-arrow-circle-next" xmlns="http://www.w3.org/2000/svg"><path d="M0 8a8 8 0 108-8 8.009 8.009 0 00-8 8zm10.667 0c0 .488-.178.96-.502 1.325a14.68 14.68 0 01-.518.56L7.765 11.8a.666.666 0 11-.951-.933L8.7 8.947c.125-.126.294-.312.467-.506a.667.667 0 000-.882c-.172-.194-.342-.38-.462-.502L6.814 5.133a.666.666 0 11.95-.933l1.887 1.92c.133.133.32.337.512.555.325.365.504.836.504 1.325z" fill="currentColor"/></svg><svg fill="none" viewBox="0 0 44 43" id="icon-arrow-next" xmlns="http://www.w3.org/2000/svg"><path d="M26.878 25.929l-5.186 5.158a.93.93 0 01-1.297.01.88.88 0 01-.01-1.266l5.191-5.163c.343-.337.822-.852 1.31-1.386a2.64 2.64 0 000-3.56 35.517 35.517 0 00-1.315-1.392l-5.187-5.158a.88.88 0 01.011-1.267.926.926 0 01.644-.258c.236 0 .475.09.653.267l5.18 5.153c.364.353.87.896 1.387 1.466a4.406 4.406 0 010 5.936 38.867 38.867 0 01-1.38 1.458v.002z" fill="currentColor"/></svg><svg fill="none" viewBox="0 0 44 43" id="icon-arrow-next-double" xmlns="http://www.w3.org/2000/svg"><path d="M26.878 25.929l-5.186 5.158a.93.93 0 01-1.297.01.88.88 0 01-.01-1.266l5.191-5.163c.343-.337.822-.852 1.31-1.386a2.64 2.64 0 000-3.56 35.517 35.517 0 00-1.315-1.392l-5.187-5.158a.88.88 0 01.011-1.267.926.926 0 01.644-.258c.236 0 .475.09.653.267l5.18 5.153c.364.353.87.896 1.387 1.466a4.406 4.406 0 010 5.936 38.867 38.867 0 01-1.38 1.458v.002z" fill="currentColor"/><path d="M33.757 25.929l-5.186 5.158a.93.93 0 01-1.297.01.88.88 0 01-.01-1.266l5.191-5.163c.343-.337.822-.852 1.31-1.386a2.64 2.64 0 000-3.56 35.517 35.517 0 00-1.315-1.392l-5.187-5.158a.88.88 0 01.011-1.267.926.926 0 01.644-.258c.236 0 .475.09.652.267l5.181 5.153c.364.353.87.896 1.387 1.466a4.406 4.406 0 010 5.936 38.867 38.867 0 01-1.38 1.458l-.001.002z" fill="currentColor"/></svg><svg fill="none" viewBox="0 0 44 43" id="icon-arrow-prev" xmlns="http://www.w3.org/2000/svg"><path d="M17.122 25.929l5.186 5.158a.93.93 0 001.297.01.88.88 0 00.01-1.266l-5.191-5.163a39.787 39.787 0 01-1.31-1.386 2.64 2.64 0 010-3.56c.488-.537.967-1.051 1.315-1.392l5.187-5.158a.88.88 0 00-.011-1.267.926.926 0 00-.644-.258.924.924 0 00-.653.267l-5.18 5.153a36.31 36.31 0 00-1.387 1.466 4.406 4.406 0 000 5.936c.517.568 1.023 1.11 1.38 1.458v.002z" fill="currentColor"/></svg><svg fill="none" viewBox="0 0 44 43" id="icon-arrow-prev-double" xmlns="http://www.w3.org/2000/svg"><path d="M17.122 25.929l5.186 5.158a.93.93 0 001.297.01.88.88 0 00.01-1.266l-5.191-5.163a39.787 39.787 0 01-1.31-1.386 2.64 2.64 0 010-3.56c.488-.537.967-1.051 1.315-1.392l5.187-5.158a.88.88 0 00-.011-1.267.926.926 0 00-.644-.258.924.924 0 00-.653.267l-5.18 5.153a36.31 36.31 0 00-1.387 1.466 4.406 4.406 0 000 5.936c.517.568 1.023 1.11 1.38 1.458v.002z" fill="currentColor"/><path d="M10.243 25.929l5.187 5.158a.93.93 0 001.296.01.88.88 0 00.01-1.266l-5.191-5.163a39.787 39.787 0 01-1.31-1.386 2.64 2.64 0 010-3.56c.488-.537.967-1.051 1.315-1.392l5.187-5.158a.88.88 0 00-.011-1.267.926.926 0 00-.644-.258.924.924 0 00-.652.267l-5.181 5.153c-.364.353-.87.896-1.387 1.466a4.406 4.406 0 000 5.936c.517.568 1.023 1.11 1.38 1.458l.001.002z" fill="currentColor"/></svg><svg fill="none" viewBox="0 0 15 15" id="icon-arrow-top-right" xmlns="http://www.w3.org/2000/svg"><path d="M13.438 0H5.625v1.875H11.8L.017 13.658l1.325 1.326L13.125 3.2v6.174H15V1.562C15 .703 14.3 0 13.438 0z" fill="currentColor"/></svg><svg fill="none" viewBox="0 0 24 24" id="icon-budget" xmlns="http://www.w3.org/2000/svg"><g clip-path="url(#agclip0_453_627)"><path d="M7.86 13.924c.366-.383.72-.815.994-1.276.431-.727-.14-1.648-.982-1.648H4.131c-.843 0-1.413.921-.982 1.648.273.461.628.894.993 1.276-2.366 1.086-4.14 4.061-4.14 6.587a3.498 3.498 0 003.5 3.488h5c1.93 0 3.5-1.565 3.5-3.488 0-2.527-1.776-5.501-4.141-6.587zM8.5 22h-5c-.826 0-1.499-.667-1.499-1.488 0-2.295 2.168-5.012 4-5.012 1.832 0 4 2.717 4 5.012 0 .821-.673 1.488-1.5 1.488zM21.002 0H6.5a3.504 3.504 0 00-3.499 3.5V8a1 1 0 002 0V3.5C5 2.673 5.674 2 6.5 2S8 2.673 8 3.5C8 4.878 9.123 6 10.5 6h8.5v13c0 1.654-1.346 3-3 3h-2a1 1 0 000 2h2c2.757 0 5-2.243 5-5V6h.5c1.378 0 2.5-1.122 2.5-2.5V3c0-1.654-1.346-3-3-3zm1 3.5a.5.5 0 01-.5.5h-11a.5.5 0 01-.5-.5c0-.537-.122-1.045-.338-1.5H21c.551 0 1 .449 1 1v.5z" fill="#3877F2"/></g><defs><clipPath id="agclip0_453_627"><path fill="#fff" d="M0 0h24v24H0z"/></clipPath></defs></svg><svg fill="none" viewBox="0 0 24 24" id="icon-calc" xmlns="http://www.w3.org/2000/svg"><path fill-rule="evenodd" clip-rule="evenodd" d="M12 22c-4.243 0-6.364 0-7.682-1.465C3 19.072 3 16.714 3 12s0-7.071 1.318-8.536C5.636 2 7.758 2 12 2c4.243 0 6.364 0 7.682 1.464C21 4.93 21 7.286 21 12c0 4.714 0 7.071-1.318 8.535C18.364 22 16.242 22 12 22zm3-16H9c-.465 0-.697 0-.888.051a1.5 1.5 0 00-1.06 1.06C7 7.304 7 7.536 7 8s0 .697.051.888a1.5 1.5 0 001.06 1.06C8.304 10 8.536 10 9 10h6c.465 0 .697 0 .888-.051a1.5 1.5 0 001.06-1.06C17 8.696 17 8.464 17 8s0-.697-.051-.888a1.5 1.5 0 00-1.06-1.06C15.697 6 15.464 6 15 6zm-6 7a1 1 0 11-2 0 1 1 0 012 0zm3 1a1 1 0 100-2 1 1 0 000 2zm5-1a1 1 0 11-2 0 1 1 0 012 0zm-1 5a1 1 0 100-2 1 1 0 000 2zm-3-1a1 1 0 11-2 0 1 1 0 012 0zm-5 1a1 1 0 100-2 1 1 0 000 2z" fill="#fff"/></svg><svg fill="none" viewBox="0 0 12 13" id="icon-calendar" xmlns="http://www.w3.org/2000/svg"><path d="M9.25 1.5H9v-.25a.75.75 0 00-1.5 0v.25h-3v-.25a.75.75 0 00-1.5 0v.25h-.25A2.75 2.75 0 000 4.25v5.5a2.75 2.75 0 002.75 2.75h6.5A2.75 2.75 0 0012 9.75v-5.5A2.75 2.75 0 009.25 1.5zm0 9.5h-6.5A1.25 1.25 0 011.5 9.75V5.5h9v4.25A1.25 1.25 0 019.25 11z" fill="currentColor"/></svg><svg fill="none" viewBox="0 0 27 27" id="icon-call" xmlns="http://www.w3.org/2000/svg"><path d="M7.447 12.139a16.984 16.984 0 007.414 7.413l2.475-2.474a1.129 1.129 0 011.148-.282c1.26.416 2.61.642 4.016.642a1.125 1.125 0 011.125 1.125V22.5a1.125 1.125 0 01-1.125 1.125A19.125 19.125 0 013.375 4.5 1.125 1.125 0 014.5 3.375h3.938A1.125 1.125 0 019.562 4.5c0 1.406.226 2.756.642 4.016.123.394.034.833-.282 1.148l-2.475 2.475z" fill="currentColor"/></svg><svg fill="none" viewBox="0 0 12 12" id="icon-discount" xmlns="http://www.w3.org/2000/svg"><path d="M12 6c0-.813-.357-1.58-.963-2.062a2.745 2.745 0 00-.795-2.181C9.667 1.183 8.875.892 8.104.98 7.097-.298 4.92-.322 3.938.962 2.32.77.767 2.292.98 3.896-.298 4.903-.323 7.079.962 8.063c-.07.81.22 1.605.795 2.18.575.575 1.369.866 2.139.778 1.007 1.278 3.182 1.302 4.166.018.81.069 1.605-.22 2.18-.796.575-.574.865-1.37.778-2.138.623-.524.98-1.291.98-2.104V6zM4 4.5c.003-.654.997-.654 1 0-.003.654-.997.654-1 0zm1.416 3.278a.5.5 0 01-.832-.555l2-3a.5.5 0 11.832.555l-2 3zM7.5 8c-.654-.003-.654-.997 0-1 .654.003.654.997 0 1z" fill="#fff"/></svg><svg fill="none" viewBox="0 0 21 21" id="icon-hamburger" xmlns="http://www.w3.org/2000/svg"><g clip-path="url(#alclip0_367_2766)" fill="#424242"><path d="M18.938 9.295H2.063a1.205 1.205 0 100 2.41h16.875a1.205 1.205 0 000-2.41zM2.063 6.08h16.875a1.205 1.205 0 000-2.41H2.063a1.205 1.205 0 000 2.41zM18.938 14.92H2.063a1.205 1.205 0 100 2.41h16.875a1.205 1.205 0 000-2.41z"/></g><defs><clipPath id="alclip0_367_2766"><path fill="#fff" transform="translate(.857 .857)" d="M0 0h19.286v19.286H0z"/></clipPath></defs></svg><svg fill="none" viewBox="0 0 12 12" id="icon-location" xmlns="http://www.w3.org/2000/svg"><path d="M6.797 11.999c-.114 0-.227-.01-.337-.03-.733-.134-1.473-.732-1.473-1.767V7.005h-3.19C.762 7.005.164 6.265.03 5.531c-.133-.733.166-1.636 1.134-2.001L9.361.133A1.922 1.922 0 0111.43.57c.546.545.715 1.332.443 2.053L8.457 10.85C8.152 11.661 7.451 12 6.797 12z" fill="currentColor"/></svg><svg fill="none" viewBox="0 0 24 24" id="icon-memo-circle-check" xmlns="http://www.w3.org/2000/svg"><g clip-path="url(#anclip0_453_631)"><path d="M10 23a1 1 0 01-1 1H5c-2.757 0-5-2.243-5-5V5c0-2.757 2.243-5 5-5h8c2.757 0 5 2.243 5 5v2a1 1 0 11-2 0V5c0-1.654-1.346-3-3-3H5C3.346 2 2 3.346 2 5v14c0 1.654 1.346 3 3 3h4a1 1 0 011 1zm4-17a1 1 0 00-1-1H5a1 1 0 100 2h8a1 1 0 001-1zm-4 5a1 1 0 00-1-1H5a1 1 0 100 2h4a1 1 0 001-1zm-5 4a1 1 0 100 2h2a1 1 0 100-2H5zm19 2c0 3.859-3.141 7-7 7s-7-3.141-7-7 3.141-7 7-7 7 3.141 7 7zm-2 0c0-2.757-2.243-5-5-5s-5 2.243-5 5 2.243 5 5 5 5-2.243 5-5zm-3.192-1.241l-2.223 2.134a.374.374 0 01-.522.002l-1.131-1.108a.999.999 0 10-1.4 1.428l1.132 1.109c.46.449 1.062.674 1.663.674s1.201-.225 1.653-.671l2.213-2.124a1 1 0 00-1.385-1.443v-.001z" fill="#3877F2"/></g><defs><clipPath id="anclip0_453_631"><path fill="#fff" d="M0 0h24v24H0z"/></clipPath></defs></svg><svg fill="none" viewBox="0 0 50 50" id="icon-play" xmlns="http://www.w3.org/2000/svg"><path d="M19.94 7.027a4.583 4.583 0 00-6.828 3.993V38.52a4.584 4.584 0 006.829 3.996l24.442-13.75a4.583 4.583 0 000-7.989L19.941 7.026z" fill="#fff"/></svg><svg fill="none" viewBox="0 0 14 14" id="icon-search" xmlns="http://www.w3.org/2000/svg"><path d="M13.744 12.51l-2.71-2.711A6.127 6.127 0 109.8 11.034l2.71 2.71a.872.872 0 101.234-1.233v-.001zm-7.593-2a4.36 4.36 0 110-8.72 4.36 4.36 0 010 8.72z" fill="currentColor"/></svg><svg fill="none" viewBox="0 0 12 13" id="icon-settings" xmlns="http://www.w3.org/2000/svg"><path d="M.804 9.5a1.5 1.5 0 002.048.55h.002l.222-.129c.42.36.903.639 1.424.822V11a1.5 1.5 0 003 0v-.257a4.489 4.489 0 001.424-.823l.224.13a1.5 1.5 0 101.5-2.6l-.222-.129c.1-.543.1-1.1 0-1.645l.222-.128a1.5 1.5 0 10-1.5-2.6l-.223.129a4.489 4.489 0 00-1.425-.82V2a1.5 1.5 0 00-3 0v.256a4.488 4.488 0 00-1.424.824l-.223-.13a1.5 1.5 0 10-1.5 2.6l.222.128a4.55 4.55 0 000 1.645l-.222.128A1.503 1.503 0 00.803 9.5zM6 4.5a2 2 0 110 4 2 2 0 010-4z" fill="currentColor"/></svg><svg fill="none" viewBox="0 0 12 13" id="icon-shield" xmlns="http://www.w3.org/2000/svg"><path d="M9.29 1.57L6.159.525a.5.5 0 00-.316 0L2.71 1.57A2.497 2.497 0 001 3.942V6.5c0 3.781 4.6 5.87 4.797 5.957a.5.5 0 00.406 0C6.4 12.37 11 10.281 11 6.5V3.942A2.496 2.496 0 009.29 1.57zM8.36 5.358L6.223 7.495a.936.936 0 01-.667.276h-.017a.936.936 0 01-.672-.3l-1.154-1.2a.5.5 0 11.721-.691l1.122 1.17 2.094-2.1a.5.5 0 01.707.707l.002.002z" fill="#fff"/></svg><svg fill="none" viewBox="0 0 24 24" id="icon-shipping" xmlns="http://www.w3.org/2000/svg"><path d="M19 5h-2.077a4.995 4.995 0 00-3.674-3.968.999.999 0 10-.498 1.936A2.999 2.999 0 0115 5.874V17H4c-1.103 0-2-.897-2-2v-4h2.5a1 1 0 100-2H2c-1.103 0-2 .897-2 2v4a4.007 4.007 0 003.055 3.887A3.504 3.504 0 006.5 23a3.504 3.504 0 003.463-4h4.074a3.504 3.504 0 003.463 4 3.504 3.504 0 003.445-4.113A4.007 4.007 0 0024 15v-5c0-2.757-2.243-5-5-5zm3 5v1h-5V7h2c1.654 0 3 1.346 3 3zM8 19.5c0 .827-.673 1.5-1.5 1.5S5 20.327 5 19.5c0-.189.037-.356.091-.5H7.91c.054.144.091.311.091.5H8zm9.5 1.5c-.827 0-1.5-.673-1.5-1.5 0-.189.037-.356.091-.5h2.819c.054.144.091.311.091.5 0 .827-.674 1.5-1.501 1.5zm2.5-4h-3v-4h5v2c0 1.103-.897 2-2 2zM0 2a1 1 0 011-1h8.154a1 1 0 110 2H1a1 1 0 01-1-1zm0 4a1 1 0 011-1h6.154a1 1 0 110 2H1a1 1 0 01-1-1z" fill="#3877F2"/></svg><svg fill="none" viewBox="0 0 20 20" id="icon-square-check" xmlns="http://www.w3.org/2000/svg"><path d="M2.5 4.167A1.667 1.667 0 014.167 2.5h11.666A1.666 1.666 0 0117.5 4.167v11.666a1.666 1.666 0 01-1.667 1.667H4.167A1.667 1.667 0 012.5 15.833V4.167z" stroke="#34A844" stroke-width="1.667" stroke-linecap="round" stroke-linejoin="round"/><path d="M7.5 9.999l1.667 1.666L12.5 8.332" stroke="#34A844" stroke-width="1.667" stroke-linecap="round" stroke-linejoin="round"/></svg><svg fill="none" viewBox="0 0 14 14" id="icon-star" xmlns="http://www.w3.org/2000/svg"><path d="M12.813 6.28l-2.46 2.124.749 3.175a.897.897 0 01-1.34.975L7 10.854l-2.763 1.7a.898.898 0 01-1.338-.975l.752-3.175-2.46-2.124a.9.9 0 01.51-1.578l3.226-.26L6.17 1.43a.895.895 0 011.656 0L9.07 4.442l3.226.26a.9.9 0 01.513 1.579h.003z" fill="#FFC239"/></svg><svg fill="none" viewBox="0 0 10 11" id="icon-star-decor" xmlns="http://www.w3.org/2000/svg"><path d="M.553 5.668L2.037 6.75l-.564 1.744a1.324 1.324 0 00.494 1.506 1.324 1.324 0 001.583-.008L5 8.925l1.451 1.067a1.344 1.344 0 002.076-1.497l-.563-1.744 1.483-1.083a1.345 1.345 0 00-.791-2.43H6.834L6.28 1.514a1.345 1.345 0 00-2.561 0l-.553 1.724h-1.82a1.345 1.345 0 00-.792 2.43H.553z" fill="#fff"/></svg><svg fill="none" viewBox="0 0 17 17" id="icon-tg" xmlns="http://www.w3.org/2000/svg"><g clip-path="url(#awclip0_420_10382)"><path d="M8.5 0a8.499 8.499 0 100 16.998A8.499 8.499 0 008.5 0z" fill="#fff"/><path d="M3.848 8.41c2.478-1.079 4.13-1.79 4.956-2.134 2.362-.982 2.852-1.153 3.172-1.159a.56.56 0 01.33.1c.084.07.108.163.12.23.01.066.025.217.014.334-.128 1.344-.682 4.606-.963 6.111-.119.637-.354.85-.58.872-.495.045-.87-.326-1.348-.64-.747-.49-1.17-.796-1.896-1.274-.84-.553-.295-.857.183-1.354.125-.13 2.3-2.108 2.342-2.287.005-.023.01-.107-.04-.15-.05-.045-.122-.03-.175-.018-.076.017-1.27.807-3.586 2.37-.34.233-.646.346-.922.34-.303-.006-.887-.171-1.322-.312-.53-.173-.955-.265-.917-.559.018-.153.23-.31.632-.47z" fill="#2AABEE"/></g><defs><clipPath id="awclip0_420_10382"><path fill="#fff" d="M0 0h17v17H0z"/></clipPath></defs></svg><svg fill="none" viewBox="0 0 16 16" id="icon-time" xmlns="http://www.w3.org/2000/svg"><g clip-path="url(#axclip0_291_8119)"><path d="M8 16c-4.411 0-8-3.589-8-8s3.589-8 8-8 8 3.589 8 8-3.589 8-8 8zM8 1.333A6.674 6.674 0 001.333 8 6.674 6.674 0 008 14.667 6.674 6.674 0 0014.667 8 6.674 6.674 0 008 1.333zm1.667 9.554a.666.666 0 00.244-.911L8.667 7.821V4a.666.666 0 10-1.334 0v4c0 .117.031.232.09.333l1.333 2.31a.666.666 0 00.91.244z" fill="#3877F2"/></g><defs><clipPath id="axclip0_291_8119"><path fill="#fff" d="M0 0h16v16H0z"/></clipPath></defs></svg><svg fill="none" viewBox="0 0 12 13" id="icon-user" xmlns="http://www.w3.org/2000/svg"><path d="M6 6.5a3 3 0 100-6 3 3 0 000 6zM6 7.5A4.505 4.505 0 001.5 12a.5.5 0 00.5.5h8a.5.5 0 00.5-.5A4.505 4.505 0 006 7.5z" fill="currentColor"/></svg><svg fill="none" viewBox="0 0 20 20" id="icon-user-box" xmlns="http://www.w3.org/2000/svg"><path d="M5 14.167c0-1.667 3.333-2.584 5-2.584 1.667 0 5 .917 5 2.584V15H5m7.5-7.5a2.5 2.5 0 11-5 0 2.5 2.5 0 015 0zm-10-3.333v11.666A1.666 1.666 0 004.167 17.5h11.666a1.666 1.666 0 001.667-1.667V4.167A1.667 1.667 0 0015.833 2.5H4.167A1.667 1.667 0 002.5 4.167z" fill="currentColor"/></svg><svg fill="none" viewBox="0 0 16 16" id="icon-vk" xmlns="http://www.w3.org/2000/svg"><g clip-path="url(#baclip0_291_8024)"><path fill-rule="evenodd" clip-rule="evenodd" d="M15.633 3.966c.111-.364 0-.632-.53-.632h-1.75c-.445 0-.65.231-.762.487 0 0-.89 2.13-2.15 3.514-.408.402-.594.529-.816.529-.112 0-.279-.127-.279-.492V3.966c0-.437-.123-.632-.493-.632H6.1c-.278 0-.446.203-.446.395 0 .414.631.51.696 1.676v2.532c0 .555-.102.656-.325.656-.593 0-2.037-2.141-2.893-4.59-.166-.477-.334-.669-.782-.669H.6c-.5 0-.6.231-.6.487 0 .454.593 2.713 2.763 5.7 1.447 2.04 3.484 3.146 5.339 3.146 1.113 0 1.25-.245 1.25-.668v-1.542c0-.492.105-.59.458-.59.26 0 .705.128 1.743 1.112 1.187 1.166 1.382 1.688 2.05 1.688h1.75c.5 0 .751-.245.607-.73-.159-.483-.725-1.184-1.477-2.015-.408-.473-1.02-.983-1.206-1.239-.259-.327-.185-.473 0-.764 0 0 2.134-2.951 2.356-3.953" fill="#fff"/></g><defs><clipPath id="baclip0_291_8024"><path fill="#fff" d="M0 0h16v16H0z"/></clipPath></defs></svg><svg fill="none" viewBox="0 0 16 16" id="icon-whapp" xmlns="http://www.w3.org/2000/svg"><path d="M.067 7.902c0 1.392.366 2.752 1.063 3.95L0 15.947l4.223-1.099a8.012 8.012 0 003.807.962h.004c4.39 0 7.964-3.545 7.966-7.902a7.824 7.824 0 00-2.331-5.59A7.948 7.948 0 008.033 0C3.644 0 .07 3.545.067 7.902zm2.515 3.744l-.158-.248a6.513 6.513 0 01-1.012-3.496c.001-3.621 2.972-6.567 6.624-6.567 1.769 0 3.431.684 4.681 1.926a6.503 6.503 0 011.938 4.647c-.002 3.621-2.972 6.568-6.621 6.568H8.03a6.654 6.654 0 01-3.37-.916l-.242-.142-2.506.652.669-2.424z" fill="#fff"/><path d="M6.042 4.6c-.149-.33-.306-.336-.448-.341-.116-.005-.249-.005-.381-.005a.734.734 0 00-.53.247c-.183.198-.698.675-.698 1.647s.714 1.911.813 2.043c.1.132 1.377 2.19 3.4 2.981 1.682.658 2.024.527 2.389.494.365-.033 1.178-.477 1.344-.939.166-.46.166-.856.116-.939-.05-.082-.183-.131-.382-.23s-1.177-.577-1.36-.643c-.182-.065-.315-.098-.448.1-.133.197-.514.642-.63.773-.116.132-.232.149-.431.05-.2-.099-.84-.307-1.601-.98A5.956 5.956 0 016.088 7.49c-.117-.197-.013-.304.087-.403.09-.088.199-.23.299-.346.099-.115.132-.197.198-.33.067-.131.034-.246-.016-.345-.05-.099-.437-1.076-.614-1.466z" fill="#fff"/></svg><svg fill="none" viewBox="0 0 18 18" id="icon-yt" xmlns="http://www.w3.org/2000/svg"><g clip-path="url(#bcclip0_291_8028)"><path fill-rule="evenodd" clip-rule="evenodd" d="M9 3c.641 0 1.299.017 1.937.043l.753.036.72.043.675.046.617.048a2.851 2.851 0 012.62 2.567l.03.319.056.683c.053.707.092 1.478.092 2.215 0 .737-.039 1.508-.091 2.216l-.057.682-.03.319a2.852 2.852 0 01-2.621 2.567l-.615.047-.675.047-.721.043-.753.036c-.646.027-1.291.042-1.937.043a46.314 46.314 0 01-1.936-.043l-.753-.037-.721-.042-.675-.047-.617-.047a2.851 2.851 0 01-2.62-2.567l-.03-.319-.056-.682A30.492 30.492 0 011.5 9c0-.737.039-1.508.091-2.215l.057-.683.03-.319a2.851 2.851 0 012.62-2.567l.615-.048.675-.046.722-.042.753-.037A46.247 46.247 0 019 3zM7.5 7.181v3.638a.45.45 0 00.675.39l3.15-1.819a.45.45 0 000-.78l-3.15-1.818a.45.45 0 00-.675.39z" fill="#fff"/></g><defs><clipPath id="bcclip0_291_8028"><path fill="#fff" d="M0 0h18v18H0z"/></clipPath></defs></svg></svg>