<svg width="130" height="26" fill="none" xmlns="http://www.w3.org/2000/svg"><g clip-path="url(#clip0_188_649)" fill-rule="evenodd" clip-rule="evenodd"><path d="M25.833 12.723c0-2.516-.757-4.976-2.176-7.068A12.877 12.877 0 0017.86.969a13.099 13.099 0 00-7.463-.725 12.979 12.979 0 00-6.614 3.483A12.666 12.666 0 00.248 10.24a12.546 12.546 0 00.735 7.351 12.767 12.767 0 004.758 5.71 13.056 13.056 0 007.176 2.145c3.425 0 6.71-1.34 9.133-3.727a12.628 12.628 0 003.783-8.997z" fill="#FC3F1D"/><path d="M14.639 7.21h-1.18c-2.227 0-3.34 1.088-3.34 2.701 0 1.844.804 2.656 2.423 3.771l1.348.922-3.875 5.68h-2.91l3.5-5.09C8.61 13.83 7.488 12.41 7.488 10.142c0-2.914 2.05-4.877 5.981-4.877h3.875v15.093h-2.705V7.21zm26.189 6.62c.718 0 1.42-.21 2.018-.604a3.59 3.59 0 001.337-1.605 3.528 3.528 0 00.207-2.067 3.562 3.562 0 00-.994-1.831 3.648 3.648 0 00-1.86-.98 3.683 3.683 0 00-2.098.204 3.62 3.62 0 00-1.63 1.318 3.539 3.539 0 00.452 4.517 3.66 3.66 0 002.568 1.047z" fill="#fff"/><path d="M91.997 19.427h-1.545v-4.435h1.629a2.014 2.014 0 011.707.55 1.928 1.928 0 01.558 1.682c0 1.594-.936 2.203-2.35 2.203zm7.01-11.267v13.83h3.332V8.16h-3.332zm-11.877 0v13.83h5.063c3.267 0 5.616-1.65 5.616-4.914 0-3.08-2.068-4.703-5.54-4.703H90.48V8.16h-3.35zm-1.957 2.59V8.16H74.016v2.59h3.913v11.267h3.323V10.751h3.921zm-18.027 8.944c-1.769 0-2.667-1.392-2.667-4.61 0-3.218.936-4.61 2.808-4.61 1.871 0 2.705 1.392 2.705 4.61 0 3.218-.936 4.61-2.874 4.61h.028zM64.236 8.16h-3.08V26h3.323v-5.605c.374.58.892 1.057 1.504 1.387.612.33 1.298.503 1.996.503 3.239 0 5.485-2.554 5.485-7.21 0-4.656-2.18-7.182-5.316-7.182a4.357 4.357 0 00-2.15.536 4.277 4.277 0 00-1.594 1.52l-.169-1.79zm-9.09 10.547a2.744 2.744 0 01-1.047.846 2.788 2.788 0 01-1.33.252 1.899 1.899 0 01-1.515-.491 1.82 1.82 0 01-.58-1.464c-.001-1.567 1.14-2.139 4.005-2.139h.468v2.996zm3.305-6.14c0-3.356-1.741-4.61-5.26-4.61a10.099 10.099 0 00-4.924 1.263v2.766a8.72 8.72 0 014.568-1.429c1.582 0 2.312.544 2.312 2.038v.765h-.534c-5.092 0-7.347 1.66-7.347 4.472 0 2.812 1.731 4.379 4.305 4.379a4.212 4.212 0 001.872-.255 4.159 4.159 0 001.563-1.045h.14c.04.377.125.749.253 1.106h3.248a31.662 31.662 0 01-.196-3.392v-6.058zm-15.266 9.45h3.94l-6.907-10.03 6.261-9.092h-3.435l-6.018 8.815V2.877h-3.379v19.14h3.379v-8.98l6.159 8.98z" fill="#000"/></g><defs><clipPath id="clip0_188_649"><path fill="#fff" d="M0 0h130v26H0z"/></clipPath></defs></svg>